<?xml version="1.0" encoding="utf-8"?>
<!-- Generator: Adobe Illustrator 22.0.1, SVG Export Plug-In . SVG Version: 6.00 Build 0)  -->
<svg version="1.1" id="Capa_1" xmlns="http://www.w3.org/2000/svg" xmlns:xlink="http://www.w3.org/1999/xlink" x="0px" y="0px"
	 viewBox="0 0 102.8 107.4" style="enable-background:new 0 0 102.8 107.4;" xml:space="preserve">
<style type="text/css">
	.st0{fill:#CCE0E5;}
</style>
<g>
	<path class="st0" d="M33.3,78.3c0-15-0.1-27.4-0.1-42.4c1.7,0,3.7,0,5.5,0c0,13.2-0.2,23.9-0.2,37.3c0.4,0,0.8,0,1.2,0
		c12.5,0,25.1,0,37.6,0c0.4,0,0.8,0,1.1,0c0,1.7,0,3.4,0,5.1C63.3,78.3,48.3,78.3,33.3,78.3z"/>
	<path class="st0" d="M74.8,42.8c-0.3,3.3-0.6,6.5-0.8,9.8c-0.8-0.6-1.6-1.1-2.4-1.6c-3,4.3-5.9,8.5-9,12.8
		c-3.2-1.9-6.4-3.7-9.6-5.6c-2.4,3.1-4.7,6.1-7.1,9.2c-1.1-0.8-2.1-1.6-3.3-2.5c3.1-4,6.2-8,9.3-12.1c3.1,1.8,6.2,3.6,9.4,5.5
		c2.3-3.2,4.5-6.4,6.8-9.7c-0.7-0.5-1.5-1-2.3-1.7C68.9,45.6,71.8,44.2,74.8,42.8z"/>
</g>
</svg>
