<?xml version="1.0" encoding="utf-8"?>
<!-- Generator: Adobe Illustrator 22.0.1, SVG Export Plug-In . SVG Version: 6.00 Build 0)  -->
<svg version="1.1" id="Capa_1" xmlns="http://www.w3.org/2000/svg" xmlns:xlink="http://www.w3.org/1999/xlink" x="0px" y="0px"
	 viewBox="0 0 102.8 107.4" style="enable-background:new 0 0 102.8 107.4;" xml:space="preserve">
<style type="text/css">
	.st0{fill:#CCE0E5;}
</style>
<g>
	<path class="st0" d="M74.5,62.4c-0.4,1-1.2,1.6-2.2,2c-5.9,2.9-11.8,5.8-17.6,8.8c-1.9,1-3.7,1-5.6,0c-5.9-3-11.9-6-17.9-8.9
		c-0.2-0.1-0.5-0.2-0.7-0.4c-1.7-1.1-1.7-3.3,0-4.4c1.1-0.6,2.2-1.1,3.4-1.8c-1.1-0.5-2-1-2.9-1.5c-1.1-0.5-1.8-1.3-1.8-2.5
		c0-1.2,0.8-1.9,1.8-2.4C32,51,32.9,50.5,34,50c-1.1-0.6-2.1-1.1-3.1-1.5c-1-0.5-1.7-1.2-1.7-2.4c0-1.2,0.7-1.9,1.7-2.4
		c6.2-3.1,12.3-6.2,18.5-9.2c1.7-0.8,3.3-0.8,5,0c6.1,3.1,12.3,6.1,18.4,9.2c0.7,0.4,1.2,1.2,1.7,1.8c0,0.4,0,0.8,0,1.2
		c-0.4,1-1.2,1.6-2.2,2c-0.8,0.4-1.6,0.8-2.6,1.3c0.7,0.4,1.3,0.7,1.9,1c1.1,0.5,2.2,1,2.8,2.3c0,0.5,0,0.9,0,1.4
		c-0.5,1-1.3,1.6-2.3,2c-0.8,0.3-1.5,0.8-2.4,1.2c0.9,0.5,1.6,0.8,2.3,1.2c1,0.5,2,1,2.4,2.2C74.5,61.6,74.5,62,74.5,62.4z
		 M51.9,56.4c0.6-0.2,1.1-0.3,1.7-0.6c6.1-3,12.1-6,18.2-9.1c0.3-0.1,0.5-0.4,0.7-0.6c-0.2-0.2-0.4-0.5-0.7-0.7
		c-6-3-12.1-6.1-18.2-9.1c-1.1-0.6-2.2-0.6-3.3,0c-6.1,3.1-12.2,6.1-18.2,9.1c-0.3,0.1-0.4,0.4-0.7,0.6c0.2,0.2,0.4,0.5,0.7,0.6
		c6.1,3.1,12.2,6.1,18.2,9.1C50.7,56.1,51.3,56.2,51.9,56.4z M51.8,64.2c0.5-0.2,1-0.2,1.5-0.5c6.2-3.1,12.4-6.2,18.6-9.3
		c0.2-0.1,0.5-0.4,0.5-0.5c-0.1-0.2-0.3-0.5-0.5-0.6c-1.2-0.6-2.4-1.2-3.6-1.8c-0.6-0.3-1-0.3-1.6,0c-3.9,2-7.8,3.9-11.7,5.9
		c-2.1,1.1-4.1,1.1-6.2,0c-3.9-2-7.8-3.9-11.8-5.9c-0.5-0.3-1-0.3-1.5,0c-1.2,0.6-2.4,1.2-3.5,1.8c-0.3,0.1-0.5,0.4-0.7,0.6
		c0.2,0.2,0.4,0.5,0.7,0.6c6.1,3.1,12.2,6.1,18.2,9.1C50.7,63.9,51.3,64.1,51.8,64.2z M51.9,72.1c0.5-0.2,1-0.3,1.5-0.5
		c6.2-3.1,12.3-6.2,18.5-9.2c0.2-0.1,0.4-0.4,0.6-0.6c-0.2-0.2-0.4-0.4-0.6-0.6c-1.2-0.6-2.5-1.2-3.7-1.9c-0.5-0.3-0.8-0.2-1.3,0
		c-4,2-8,4-12,6c-2,1-3.8,1-5.8,0c-4-2-8-4-12-6c-0.5-0.2-0.8-0.3-1.3,0c-1.2,0.6-2.4,1.2-3.6,1.8c-0.3,0.1-0.5,0.4-0.7,0.6
		c0.2,0.2,0.4,0.5,0.7,0.7c6.1,3,12.1,6.1,18.2,9.1C50.7,71.8,51.3,71.9,51.9,72.1z"/>
</g>
</svg>
