<?xml version="1.0" encoding="utf-8"?>
<!-- Generator: Adobe Illustrator 22.0.1, SVG Export Plug-In . SVG Version: 6.00 Build 0)  -->
<svg version="1.1" id="Capa_1" xmlns="http://www.w3.org/2000/svg" xmlns:xlink="http://www.w3.org/1999/xlink" x="0px" y="0px"
	 viewBox="0 0 102.8 107.4" style="enable-background:new 0 0 102.8 107.4;" xml:space="preserve">
<style type="text/css">
	.st0{fill:#CCE0E5;}
</style>
<g>
	<path class="st0" d="M55.4,71.8c-4.1-0.4-7.9-1.9-11.8-3.1c-0.7-0.2-1.4-0.3-2.1-0.3c-2.1,0-4.3,0-6.4,0c-2.4,0-3.7-1.4-3.7-3.7
		c0-5.5,0-11,0-16.5c0-2.3,1.3-3.7,3.6-3.7c2,0,4.1,0,6.1,0c0.7,0,1.3-0.2,1.7-0.8c1.2-1.5,2.5-3,3.8-4.5c0.1-0.1,0.1-0.2,0.2-0.3
		c2-1.8,2.8-4.1,3.2-6.6c0-0.3,0.1-0.6,0.2-0.8c0.9-3.3,3-4.6,6.4-3.8c3.4,0.8,5.2,3.2,5.4,7.1c0.1,2-0.2,3.9-1,5.7
		c-0.1,0.1-0.1,0.3-0.1,0.4c0,0,0,0.1,0,0.2c1.3,0,2.7,0.1,4,0c5.2-0.3,9.3,5.2,6.3,10.6c-0.2,0.3-0.3,0.7-0.2,1.1
		c0.3,1.6,0,3.1-0.6,4.6c-0.2,0.4-0.2,0.8-0.2,1.2c0.1,1.7-0.3,3.2-1.1,4.6c-0.2,0.4-0.4,0.8-0.5,1.3c-0.3,4-2.6,6.6-6.6,7.2
		c-0.2,0-0.3,0.1-0.5,0.1C59.5,71.8,57.4,71.8,55.4,71.8z M41.6,64.9c2.6-0.1,4.9,1,7.3,1.8c3.9,1.4,8,1.8,12.1,1.5
		c2.7-0.2,4.1-1.5,4.3-4.1c0-0.4-0.1-0.8-0.1-1.2c0-0.3,0.1-0.6,0.3-0.8c0.9-0.8,1.5-1.8,1.3-2.8c-0.3-1.6,0.2-2.8,0.8-4.1
		c0.6-1.3,0.1-2.6-0.6-3.8c0.3-0.3,0.7-0.5,0.9-0.8c0.8-1.3,1.3-2.7,0.6-4.2c-0.7-1.4-1.9-2.1-3.5-2c-2.6,0-5.2,0-7.8,0
		c-0.3,0-0.7,0-1.1,0c0.1-0.5,0-0.9,0.2-1.2c0.5-1.4,1-2.7,1.5-4c0.8-1.9,1.1-3.8,0.6-5.7c-0.4-1.7-1.4-2.4-3.1-2.6
		c-0.9-0.1-1.3,0.2-1.5,1c-0.3,1.1-0.6,2.3-0.9,3.4c-0.4,1.2-0.7,2.5-1.4,3.5c-1.6,2.2-3.4,4.4-5.2,6.4c-1.2,1.4-2.4,2.9-4.5,2.7
		C41.6,53.6,41.6,59.2,41.6,64.9z M38.1,63.2c0-0.9-0.8-1.7-1.7-1.7c-0.9,0-1.7,0.8-1.7,1.7c0,0.9,0.8,1.7,1.7,1.7
		C37.3,64.9,38.1,64.1,38.1,63.2z"/>
</g>
</svg>
