<?xml version="1.0" encoding="utf-8"?>
<!-- Generator: Adobe Illustrator 22.0.1, SVG Export Plug-In . SVG Version: 6.00 Build 0)  -->
<svg version="1.1" id="Capa_1" xmlns="http://www.w3.org/2000/svg" xmlns:xlink="http://www.w3.org/1999/xlink" x="0px" y="0px"
	 viewBox="0 0 218.5 235.3" style="enable-background:new 0 0 218.5 235.3;" xml:space="preserve">
<style type="text/css">
	.st0{fill:#586382;}
	.st1{fill:#24AD5F;}
	.st2{fill:#4FB96F;}
	.st3{fill:#71C185;}
	.st4{fill:#ABAFB2;}
</style>
<g>
	<path class="st0" d="M75.6,134.3c2.8,0.2,5.6,0.1,8.3,0.1c0.2,0,0.4,0.1,0.7,0.1c5.1,0,10.2,0,15.4,0c0.2,0,0.5,0,0.6-0.1
		c2.8,0.1,5.6,0.2,8.4-0.1c0.3,0.3,0.6,0.2,0.9,0.2c5,0,9.9,0,14.9,0c0.3,0,0.6,0.1,0.8-0.1c2.8,0.1,5.6,0.2,8.4,0
		c0.3,0.3,0.6,0.2,0.9,0.2c5,0,9.9,0,14.9,0c0.3,0,0.6,0.1,0.8-0.1c0.3,0,0.6,0.1,0.9,0.1c1-0.1,1.8,0.2,2.4,1.1c0,0.4,0,0.8,0,1.2
		c-0.6,0.9-1.4,1.1-2.4,1.1c-31.7,0-63.4,0-95.2,0c-0.2,0-0.4,0-0.6,0c-1.1-0.1-1.9-0.8-1.8-1.7c0-0.9,0.7-1.5,1.9-1.6
		c1.1-0.1,2.1,0.1,3.2-0.1C64.6,134.3,70.1,134.3,75.6,134.3z"/>
	<path class="st1" d="M150.7,134.3c-0.3,0.2-0.6,0.1-0.8,0.1c-5,0-9.9,0-14.9,0c-0.3,0-0.7,0.1-0.9-0.2c0-5.8,0-11.6,0-17.4
		c0-14.9,0-29.8,0-44.7c0-0.9,0.2-1.2,1.1-1.2c4.8,0.1,9.7,0,14.5,0c0.8,0,1,0.1,1,1C150.7,92.8,150.7,113.6,150.7,134.3z"/>
	<path class="st2" d="M125.7,134.3c-0.3,0.2-0.6,0.1-0.8,0.1c-5,0-9.9,0-14.9,0c-0.3,0-0.7,0.1-0.9-0.2c0-4.4,0-8.7,0-13.1
		c0-11.9,0-23.8,0-35.6c0-0.8,0.2-1.2,1.1-1.2c4.9,0.1,9.8,0,14.6,0c0.7,0,0.9,0.1,0.9,0.9C125.7,101.7,125.7,118,125.7,134.3z"/>
	<path class="st3" d="M100.7,134.3c-0.2,0.2-0.4,0.1-0.6,0.1c-5.1,0-10.2,0-15.4,0c-0.2,0-0.4,0-0.7-0.1c0-0.4,0-0.8,0-1.3
		c0-11.4,0-22.8,0-34.2c0-1,0.3-1.2,1.2-1.2c4.8,0,9.6,0,14.5,0c0.7,0,1,0.2,1,1C100.7,110.6,100.7,122.5,100.7,134.3z"/>
	<path class="st3" d="M75.6,134.3c-5.5,0-11,0-16.6,0c0-6.9,0-13.9,0-20.8c0-0.5,0.1-0.7,0.7-0.7c5.1,0,10.1,0,15.2,0
		c0.6,0,0.7,0.2,0.7,0.8C75.6,120.5,75.6,127.4,75.6,134.3z"/>
	<path class="st4" d="M126.8,50.4c-1.2-0.3-2.4-0.3-3.5-0.4c-1.8-0.2-3.6-0.3-5.4-0.6c-1.1-0.1-1.6-0.8-1.5-1.9
		c0.1-0.9,0.9-1.5,1.9-1.4c4.2,0.4,8.4,0.8,12.6,1.3c0.5,0,0.9,0,1.4,0c1.3,0.2,2,1.3,1.5,2.4c-1.9,4.3-3.9,8.6-5.9,12.9
		c-0.3,0.6-0.7,1.1-1.5,1.1c-1.2,0.1-2.1-1-1.6-2.1c0.6-1.6,1.4-3.2,2.1-4.7c0.5-1.1,1-2.2,1.5-3.3c-0.1-0.1-0.1-0.1-0.2-0.2
		c-1.1,0.6-2.2,1.2-3.3,1.9c-7.5,4.3-14.9,8.6-22.4,12.9c-6.8,4-13.7,7.9-20.5,11.9c-4.4,2.6-8.8,5.1-13.3,7.6
		c-0.2,0.1-0.4,0.2-0.6,0.3c-0.9,0.4-1.9,0.2-2.3-0.6c-0.4-0.9-0.2-1.8,0.8-2.3c1.3-0.8,2.6-1.5,3.9-2.2c7.5-4.3,14.9-8.6,22.4-12.9
		c4-2.3,10.7-6.1,22.4-12.9C119.1,54.9,122.9,52.7,126.8,50.4z"/>
</g>
</svg>
