<?xml version="1.0" encoding="utf-8"?>
<!-- Generator: Adobe Illustrator 22.0.1, SVG Export Plug-In . SVG Version: 6.00 Build 0)  -->
<svg version="1.1" id="Capa_1" xmlns="http://www.w3.org/2000/svg" xmlns:xlink="http://www.w3.org/1999/xlink" x="0px" y="0px"
	 viewBox="0 0 218.5 235.3" style="enable-background:new 0 0 218.5 235.3;" xml:space="preserve">
<style type="text/css">
	.st0{fill:#FFFFFF;}
	.st1{fill:#66C5B8;}
	.st2{fill:#8AD3C9;}
	.st3{fill:#A7DDD6;}
	.st4{fill:#415A6B;}
	.st5{fill:#F2705A;}
	.st6{fill:#5B411A;}
	.st7{fill:#344A5E;}
	.st8{fill:#49351A;}
	.st9{fill:#FED05C;}
	.st10{fill:#F6B54C;}
	.st11{fill:#F7F8F9;}
	.st12{fill:#F2F2F2;}
	.st13{fill:#F6B64C;}
	.st14{fill:#AEB1B4;}
	.st15{fill:#4C5A63;}
	.st16{fill:#FEFEFE;}
	.st17{fill:#FCFCFC;}
	.st18{fill:#CDD5DF;}
	.st19{fill:#F3B44D;}
	.st20{fill:#F5865A;}
	.st21{fill:#F9BF52;}
	.st22{fill:#FAC153;}
</style>
<g>
	<path class="st0" d="M45.8,142.4c0.6-1.6,0.5-3.4,0.7-5.1c0.8-6.5,1.5-13,2.3-19.4c0.2-1.9,0-3.8,0.3-5.8c0.3-2.3,0.9-4.4,2.4-6.1
		c2-1.3,3.8-0.8,5.3,1.3c1.7,2.4,2.8,5.1,3.7,7.9c0.7,2.3,1.2,4.6,1.8,7c0.4,1.5,0.3,3.1,0.4,4.7c0.1,3.2,0.3,6.5-0.2,9.7
		c-0.2,1.4,0.5,2.4,1.2,3.4c0.3,0.5,0.9,0.5,1.4,0.4c2.2-0.2,4,0.4,5.7,1.8c0.8,0.6,1.7,0.8,2.6,0.8c2.7,0,5.4,0,8,0
		c0.5,0,1.1,0,1.6,0.2c0.4,0.3,0.7,0.6,1,1c0.3,1-0.1,2-0.2,3c-0.3,2.2-0.6,4.3-0.7,6.5c-0.4,1.5-0.4,3.1-0.3,4.7
		c0.1,1.2-0.1,1.4-1.2,1.1c-7.3-1.3-14.6-2.7-21.4-5.7c-1.3-0.6-2.7-0.9-3.9-1.6c-0.2,0.1-0.1,0.5-0.3,0.6c-0.1-0.9-0.6-1.3-1.4-1.6
		c-1.9-0.7-3.7-1.5-5.4-2.6c-1.5-0.9-2.4-2.3-3.3-3.7C45.8,144.2,45.8,143.3,45.8,142.4z"/>
	<path class="st1" d="M144.1,43c1.9,0.6,4,0.7,5.9,1.4c3,1.1,5.7,2.5,7.9,4.9c3.7,4.1,3.8,9.6,0.2,13.8c-0.6,0.7-1.2,1.4-1.9,1.9
		c-0.9,0.6-1.2,1.4-1.2,2.5c0.1,2.8,0,5.6,0,8.4c0,1-0.3,1-1,0.6c-4-2.2-8-4.3-12-6.5c-0.3-0.4-0.1-0.7-0.1-1.1
		c0.7-3.1-0.1-5.8-2-8.2c-0.4-0.5-0.9-1-1-1.7c0.5-0.4,0.9,0.1,1.3,0.2c1.4,0.5,2.9-0.1,3.6-1.2c0.7-1.1,0.5-2.6-0.5-3.6
		c-0.9-0.9-2.4-1.1-3.6-0.4c-1.1,0.6-1.6,2-1.2,3.3c0.1,0.5,0.5,0.9,0.3,1.4c-0.2,0.1-0.4,0.2-0.5,0.1c-1.4-1.1-3.1-1.9-4.5-3.1
		c-1-2.2-2.3-2.6-5-1.4c-2.1-0.1-4.1-0.5-6.1-0.4c-0.3,0-0.5-0.1-0.7-0.4c1.6-4.1,4.8-6.5,8.6-8.2c1.9-0.8,3.8-1.4,5.8-1.7
		c0.4-0.1,0.9,0,1.2-0.4c0.3,0,0.6,0,0.9,0c0.2,0.1,0.3,0.1,0.5,0c0.9,0,1.9,0,2.8,0c0.6,0.2,1.1,0.2,1.7,0
		C143.6,43,143.8,43,144.1,43z"/>
	<path class="st2" d="M143.4,43c-0.6,0.4-1.1,0.4-1.7,0C142.3,43,142.8,43,143.4,43z"/>
	<path class="st3" d="M138.9,43c-0.2,0.2-0.3,0.3-0.5,0C138.6,43,138.7,43,138.9,43z"/>
	<path class="st4" d="M120.4,126.3c0.1-0.3,0.2-0.7,0.4-1.1c2,2.5,4,5.1,6.2,7.8c1.9-5.2,4.6-9.8,7.4-14.2c1,0.1,0.8,1,1.1,1.6
		c0,0.5-0.1,0.9-0.4,1.2c-2.1,3.2-3.2,6.9-4.3,10.5c-0.2,0.7-0.5,1.4-0.7,2.1c-0.1,0.3-0.4,0.7,0.1,1.2c3.1-4.9,6.5-9.5,10.7-13.5
		c1.5-1.2,3.4-2.1,4.5-3.7c0.3-0.4,0.7-0.5,1.1-0.3c0.7,0.3,1.3,0.1,1.9-0.3c2-1.1,3.8-2.5,5.7-3.8c0.4-0.3,0.8-0.7,1.4-0.8
		c0.8,0.4,1.4,1.1,1.4,2c-2.6,1.5-5.2,3-7.7,4.6c-3.2,2.1-6.2,4.4-9,7.1c-2.8,2.7-5.6,5.5-8,8.5c-1.2,1.4-1.2,1.4-0.4,3
		c0.8,1.5,1.6,3,2.5,4.4c0.4,0.7,1,1.3,1.7,1.8c0.4,0.3,0.8,0.3,0.9-0.3c0.7-3.5,2.2-6.6,3.4-9.9c0.9-2.5,1.6-5.1,2.9-7.5
		c1-1.7,2.1-3.2,3.6-4.5c2.9-2.5,6.2-2.9,9.8-1.9c3.1,0.8,5,3.4,5.5,6.7c0.8,6.2-1.5,11.3-5.5,15.7c-2.5,2.7-5.1,5.2-7.8,7.8
		c-2.4,2.3-4.6,4.9-7,7.2c-0.7,0.7-1.5,1.3-2.3,1.8c-2,1.3-4,1.1-5.8-0.3c-2.8-2.1-5.2-4.6-7.5-7.1c-1.5-1.7-2.9-3.5-4.1-5.5
		c-1.3-2.2-3.1-3.8-5-5.4c-0.5-0.4-1-0.9-1.5-1.4c-1.5-2-3.5-3.5-5-5.4c-0.1-0.1-0.2-0.2-0.4-0.4c-0.1-0.1-0.1-0.2-0.2-0.3
		c-1.1-1.3-1.1-1.4,0.5-1.9c2.1-0.7,4.2-1.4,6.3-2.3C118.4,128.8,119.4,127.6,120.4,126.3z"/>
	<path class="st5" d="M121.9,53.3c2.3,0,4.7,0.2,7,0.6c1.9,0.1,3.6,0.5,5.1,1.8c1.7,0.8,3.2,1.9,4.7,3.1c0,0,0.1,0.1,0.1,0.1
		c2.2,2.4,3.9,5,3.6,8.5c-0.1,0.9-0.3,1.8-0.5,2.6c-2.2,5-6.5,7.5-11.5,9c-2,0.6-4,1-6,1c-1.4,0-2.7,0.4-3.9,1.1
		c-3.5,2-7.1,3.8-10.7,5.8c-0.8,0.5-1.2,0.5-1.1-0.6c0.1-2.9,0-5.7,0-8.6c0-0.9-0.3-1.5-1-2.1c-2.6-2.1-4.5-4.7-4.7-8.2
		c-0.2-4,1.7-6.9,4.7-9.3c3.8-2.9,8.2-4.1,13-4.5C121.1,53.3,121.5,53.3,121.9,53.3z"/>
	<path class="st6" d="M156.8,115c-0.5-0.6-0.9-1.3-1.4-1.9c-0.9-0.6-1.1-1.6-1.5-2.4c-0.7-3.1-0.5-6.2-0.5-9.3c0-0.6,0-1.3-0.2-1.9
		c-0.4-1.1-1.3-1.5-2.3-1c-0.4,0.2-0.6,0.4-0.9,0.7c-1.4,1.2-2.9,1.2-4.3-0.1c-1.7-1.5-2.6-3.4-3.5-5.4c-0.2-0.4-0.3-0.7-0.5-1.3
		c0.3,1.1,1,2,0.9,3.1c-0.1,0.2-0.2,0.3-0.4,0.3c-1.5-1.7-2.4-3.8-3-6c-0.4-1.3-0.8-2.6-0.6-4c-0.1-1.2,0.8-1.8,1.5-2.4
		c2.5-2.1,5.5-2.7,8.7-2.5c3.5,0.3,6.7,1.4,9.7,3.3c2.9,1.8,4.2,4.5,4.9,7.6c1,4.4,1.2,8.9,1.3,13.4c0.2,5.9,0.8,11.8,1.6,17.7
		c0.7,5.3,0.1,10.4-3.6,14.6c-0.3,0.4-0.6,0.8-1,1c-0.4-0.5-0.2-1-0.1-1.5c0.3-2.1,0.6-4.3,1-6.4c0.5-3.3-0.5-6.2-1.9-9.1
		c-0.9-1.9-2.1-3.6-3.3-5.3C157.2,116,156.8,115.6,156.8,115z"/>
	<path class="st7" d="M156.8,115c2.7,3.4,5,6.9,6,11.2c0.6,2.4,0.2,4.8-0.2,7.1c-0.3,1.7-0.6,3.5-0.8,5.2c-2,4-4.2,8-6,12.1
		c-1.3,3-0.8,6.2-0.8,9.3c0,0.6,0.4,1.1,0.8,1.6c0.4,0.6,0.8,1.2,1.1,1.9c-0.2,0.2-0.4,0.2-0.6,0.2c-10.9,0.1-21.9,0.1-32.8,0.3
		c-1,0-1.2-0.3-1.2-1.2c0-4.1,0.3-8.1,1.1-12.1c0.1-0.6-0.1-0.8-0.5-1.1c-3.3-2-6.5-4.1-9.8-6.1c0-0.5,0.4-0.4,0.6-0.4
		c0.7-0.1,1.1-0.4,1.2-1c0.4-0.7,0.2-1.6,0.7-2.3c2.4,2.1,5,4,6.6,6.8c2.2,3.8,5.3,6.8,8.3,9.9c1.1,1.1,2.4,2.1,3.7,3
		c2,1.4,3.8,0.9,5.6-0.4c1.5-1.1,2.8-2.4,4-3.8c1.1-1.2,2.2-2.4,3.3-3.5c2.9-3,5.9-5.9,8.8-8.9c2.8-2.9,4.7-6.2,5.6-10.2
		c0.6-2.8,0.5-5.6-0.7-8.3c-1.3-2.9-3.8-3.9-6.8-4.1c-5.1-0.4-8.3,2.5-10.6,6.6c-1.7,3-2.5,6.4-3.8,9.6c-0.9,2.2-1.9,4.5-2.5,6.9
		c0,0.2-0.1,0.3-0.1,0.5c0,0.5,0.1,1.2-0.5,1.3c-0.5,0.1-1-0.3-1.4-0.7c-1.6-1.3-2.2-3.3-3.3-5c-0.4-0.7-0.7-1.5-1.2-2.1
		c-0.4-0.4-0.1-0.8,0.2-1.1c3.1-3.9,6.6-7.4,10.3-10.8c3.5-3.2,7.4-5.8,11.4-8.3C154,116.4,155.3,115.5,156.8,115z"/>
	<path class="st8" d="M76.8,89.9c0-0.1-0.1-0.1-0.1-0.2c0.8-3.4-0.2-6.7-0.6-10c-0.4-3.9,0.1-7.6,3.1-10.4
		c5.7-5.3,11.7-6.1,18.5-1.6c1.8,1.2,3.3,2.6,4.5,4.4c1.7,2.4,1.1,5-1.5,6.4c-3,1.3-5.9,3-8.9,4.3c-2.3,0.9-3.5,2.6-3.7,5
		c0,0.6-0.3,1.1-1,1.1c-0.7,0-1.1-0.3-1.3-1c-0.2-1.1-0.5-2.2-1.1-3.2c-0.4-0.7-1-1.4-1.9-1.3c-0.9,0.1-1.5,0.7-1.8,1.5
		c-0.5,1-0.8,2.1-1.3,3.2c-0.4,0.8-0.8,1.5-1.5,1.9C77.8,90.1,77.3,90.5,76.8,89.9z"/>
	<path class="st9" d="M76.8,89.9c1.2,0.2,1.9-0.4,2.3-1.4c0.5-1,0.9-2,1.3-3c0.2-0.5,0.4-1,0.7-1.5c1-1.4,2.4-1.5,3.5-0.2
		c0.9,1.1,1.3,2.3,1.5,3.7c0.1,0.6,0.2,1,1,1c0.8,0,0.7-0.5,0.7-1c0.2-2.2,1.2-3.7,3.2-4.7c2.6-1.3,5.4-2.2,7.8-3.9
		c0.5-0.4,1.2-0.4,1.9-0.4c0.1,1.3,0.2,2.5,0.6,3.7c0.3,1-0.3,1.6-0.9,2.1c-0.7,0.7-0.9,1.4-0.6,2.3c0.3,1,0.5,2.1,0.7,3.2
		c0.2,1-0.3,1.5-1.2,1.6c-0.7,0-1,0.3-1.1,1c-0.1,0.5-0.2,0.9-0.7,1.2c-0.1,0-0.2,0.1-0.2,0.1c0.4,1.4-1.2,2.4-0.8,3.9
		c0.2,1-0.4,1.5-1.3,1.7c-0.6,0.1-1.3,0-1.9,0.1c-0.4,0-0.9,0-1.3-0.1c-0.1,0-0.2-0.1-0.3-0.1c-2.8-2-5.3-4.4-7-7
		c0.6,2.8,1.6,5.8,3.4,8.4c0.7,2.4-0.1,4.7-1,6.9c-0.8,0.5-1.2-0.2-1.6-0.7c-0.7-1-1.5-1.8-2.3-2.6c-3.1-3.2-5.5-7-8-10.7
		c-0.2-0.2-0.3-0.5-0.2-0.8C75.6,91.7,76.2,90.8,76.8,89.9z"/>
	<path class="st9" d="M138.6,85.9c0.4,0.6,0.3,1.4,0.4,2.1c0.5,2.9,1.8,5.4,3.2,7.9c0.2,0.1,0.4,0.3,0.4,0.5c0-0.2,0-0.5-0.1-0.7
		c-0.4-1.3-0.8-2.5-1.2-3.8c0.1,0,0.1-0.1,0.2-0.1c0.6,1.2,1.2,2.5,1.9,3.7c0.7,1.3,1.5,2.5,2.6,3.5c1.4,1.2,2.7,1.2,4,0
		c0.7-0.7,1.6-1.3,2.6-0.8c1.1,0.4,1.2,1.5,1.2,2.5c0.1,2.8-0.2,5.6,0.2,8.3c0.1,0.6,0.2,1.2,0.3,1.9c-0.9-0.5-1.6-0.2-2.3,0.3
		c-4.5,3-8.4,6.5-11.8,10.7c-0.3,0.3-0.5,0.7-0.8,1c-0.9,0.8-1.6,1.8-2.7,2.4c-0.5,0.3-1,0.3-0.6-0.5c1.6-2.5,3.2-5,4.7-7.6
		c0.7-1.2,1.4-2.5,0.6-3.9c2.6-1.8,4.7-4,5.9-6.5c-2.1,2.2-4.8,4.1-8.4,4.2c-0.2,0-0.3,0.1-0.5,0.1c-0.9-0.3-1.7-0.6-2.6-0.8
		c-1.1-0.3-1.7-1.1-1.5-2.2c0.3-1.3,0.3-2.6,0.3-3.9c0-0.9-0.2-1.8,0.2-2.7c0.1-0.3-0.3-0.4-0.5-0.5c-1.3-0.9-1.4-1.8-0.5-3.1
		c0.2-0.4,0.5-0.7,0.8-1c1.2-1.2,1.9-2.6,1.8-4.5C136.3,89.9,137.6,87.9,138.6,85.9z"/>
	<path class="st0" d="M83.1,143.4c0.5,0,1,0,1.5,0c1,0.1,1-0.3,0.7-1.1c-2.2-5.5-4.7-10.8-7.2-16.1c-2.5-5.4-5.4-10.6-8-15.9
		c-0.4-0.8-0.9-1.6-1.4-2.5c-0.8-1.6-0.9-1.7,0.6-2.7c0.9-0.7,0.7-1-0.1-1.4c-2.3-1.4-2.4-1.7-1.6-4.4c0.1-0.4,0.6-0.8,0.1-1.3
		c1.7-1.3,3.5-2.6,5.2-3.8c0.5,0.1,0.5,0.5,0.5,0.8c-0.3,2.2,0.4,4.3,0.5,6.5c0,1.3,0.1,2.6,0.1,4c0,0.8,0.3,1,1.1,0.8
		c0.5-0.2,1-0.4,1.6-0.3c0.4,0.2,0.5,0.7,0.7,1.1c3.8,11.5,7.5,23,9.2,35c0.1,0.5,0.3,1.1-0.1,1.6c-0.8,0.5-1.8,0.3-2.6,0.5
		C83.4,144.1,83.1,143.9,83.1,143.4z"/>
	<path class="st10" d="M114.4,116.8c1.1-1.8,2.5-3.4,4.2-4.8c0.8-0.7,1.3-1.8,1.9-2.7c0.2-0.4,0.5-0.7,0.7-1.1
		c0.5-0.6,1.1-1.2,1.9-0.7c0.7,0.5,0.2,1.3-0.1,1.8c-0.6,1.1-1.4,2.2-2.1,3.2c-0.2,0.4-0.8,0.7-0.5,1.2c0.3,0.4,0.9,0.5,1.4,0.5
		c2.6,0.3,5-0.6,7.4-1.4c0.8-0.3,1.6-0.7,2.5-0.5c0.3,0.1,0.7,0.3,0.8,0.7c0.1,0.4-0.3,0.5-0.6,0.7c-1.6,1-3.2,2-5,2.6
		c-0.8,0.3-1.3,0.6-0.9,1.5c0.1,0.3,0.2,0.8,0,1c-0.7,0.8-0.8,1.9-1.2,2.8c-0.6,1.4-1.6,2.2-3.2,2.3c-0.6,0-1.1,0.3-1.7,0.5
		c-0.4,0.6-1.1,0.6-1.7,0.8c-0.4,0-0.8-0.1-1.1-0.3c-1.1-0.7-2.2-1.4-3.6-1.5c0.2-0.6,0-1.2-0.2-1.8c-0.4-1.1-0.8-2.3-0.2-3.5
		C113.6,117.9,113.9,117.3,114.4,116.8z"/>
	<path class="st9" d="M113.6,123.5c1.1-0.2,2.1,0,3,0.8c0.4,0.4,1.2,0.5,1.8,0.8c0.5-0.1,1.1-0.1,1.4,0.5c0.2,0.2,0.5,0.5,0.7,0.7
		c-0.4,1.3-1.3,2.1-2.4,2.8c-2.4,1.4-4.9,2.3-7.5,2.9c-1.5,0-2.8-0.8-4.3-1.1c-0.7-0.3-1.4-0.6-2-1c-0.8-0.8-1.6-1.5-2.3-2.4
		c-0.3-0.4-0.6-0.8-1-1.1c-1.1-0.7-0.9-1.9-0.8-2.9c0.1-0.8,1-0.7,1.7-0.7c0.8,0.1,1.5,0.7,2.2,1c1.5,0.5,2.4,1.8,3.8,2.4
		c1.6,0.7,3.4,0.7,5.1,0.8c0.9,0,1-0.3,0.4-1.1C112.6,124.9,112.7,124,113.6,123.5z"/>
	<path class="st4" d="M85.7,163.7c0.4-0.9,0.4-1.9,0.7-2.8c0.6-0.4,1.2-0.3,1.8-0.3c3.2,0.1,6.3-0.2,9.4-1c1.3-0.3,2.5-0.9,3.7-1.5
		c1.4-0.8,2.4-2,3.2-3.4c0.5-0.1,0.5,0.4,0.6,0.7c0.2,1.2,0.8,2.4,1.3,3.5c0.6,1.5,1.2,3.1,0.8,4.7
		C100.1,163.7,92.9,163.7,85.7,163.7z"/>
	<path class="st10" d="M115.8,139.6c-0.1,0.9,0,1.8-0.5,2.6c-1,0.5-2.1,0.5-3.1,0c-2.5-0.4-4.7-1.5-7-2.4c-1.1-0.2-1.6-1.1-2.3-1.7
		c-1-1-2-2.1-3.1-3c-0.2-0.3-0.5-0.5-0.7-0.8c-0.7-0.9-0.7-1.1,0.4-1.6c1.1-0.2,2,0.4,3,0.7c0.8,0.4,1.5,0.9,2.5,0.9
		c0.5,0.1,0.9,0.2,1.4,0.3c1.5,0.2,3.1,0.3,4.5-0.4C112.4,136.1,114.3,137.6,115.8,139.6z"/>
	<path class="st0" d="M76.7,106.1c-1,0.2-2.1,1.2-2.8,0.7c-0.6-0.4-0.2-1.8-0.2-2.8c-0.1-2.3-0.2-4.6-0.6-6.9
		c-0.1-0.7-0.2-1.4,0-2.1c0.1-0.3,0.3-0.6-0.2-0.8c0.7-0.5,1.4-1.1,2.1-1.6c2.6,3.9,5.1,7.9,8.3,11.4c0,0.4-0.3,0.5-0.5,0.5
		c-1.7,0.1-3.3,1-4.9,1.5C77.5,106.1,77.1,106.3,76.7,106.1z"/>
	<path class="st11" d="M103,137.9c0.7,0.6,1.4,1.3,2.2,1.9c0.4,5.4,0.5,10.8,2.3,16c0.8,2.2,2,4.3,2.7,6.6c0.1,0.4,0.2,0.8,0.3,1.2
		c-1.1,0-2.2,0-3.2,0c-0.3-2.1-0.7-4.2-1.8-6.2c-0.5-0.8-0.5-1.8-0.8-2.8c-0.5-0.3-0.5-0.9-0.6-1.4c-0.3-1.9-0.6-3.7-0.9-5.6
		c-0.3-0.9-0.4-1.8-0.3-2.7c-0.2-1.9-0.4-3.8-0.5-5.7C102.4,138.8,102.2,138.1,103,137.9z"/>
	<path class="st12" d="M141.2,113.2c0.8,0.9,0.9,1.8,0.3,2.9c-1.7,3-3.4,5.9-5.5,8.7c-0.3-1.4-0.5-2.8-0.6-4.3
		c-0.4-0.5-0.4-1.2-1-1.6c0-0.5,0.3-0.7,0.7-1c2-1.6,4.1-3,5.9-4.7C141.1,113.1,141.2,113.1,141.2,113.2z"/>
	<path class="st13" d="M141.2,113.2c-0.1,0-0.1,0-0.2,0c-0.7-1.1-1.7-1.7-2.8-2.2c0.2-0.3,0.4-0.4,0.8-0.4c2.9-0.1,5.2-1.6,7.2-3.5
		c0.5-0.4,0.9-1,1.4-1.4C146.2,108.8,144.5,111.7,141.2,113.2z"/>
	<path class="st14" d="M112.1,142.2c1,0,2.1,0,3.1,0c-0.3,1.2-1.3,0.9-2.1,1.2C112.5,143.2,112.3,142.8,112.1,142.2z"/>
	<path class="st15" d="M119.7,125.6c-0.5-0.2-0.9-0.3-1.4-0.5c0.4-0.4,1.1-0.4,1.6-0.6C120,124.9,119.9,125.3,119.7,125.6z"/>
	<path class="st9" d="M95.4,149.4c1.6,0.9,3.1,1.9,4.9,2.2c0.2,0,0.5,0.1,0.7,0.3c0.5,0.3,0.8,0.7,0.7,1.2c-0.1,0.5-0.5,0.8-1,0.9
		c-0.5,0.1-0.9,0.1-1.4,0.1c-1-0.1-1.9,0.1-2.4,1.1c-0.1,0.2-0.3,0.3-0.6,0.4c-0.1,0-0.2,0.1-0.3,0.1c-0.4,0-0.6,0.2-0.7,0.6
		c-0.1,0.3-0.2,0.7-0.5,0.7c-1.7,0.1-3.1,1.5-5,0.8c-0.9-0.4-1.9-0.7-2.7-1.3c-1.3-1-2.7-1.8-4.1-2.6c-0.3-1.7,0.2-3.4,0.3-5.1
		c0.2-1.5,0.4-3.1,0.7-4.6c0.2-0.7,0.8-0.5,1.2-0.5c0.5,0,0.9,0,1.4,0c2.1-0.4,4.1-0.6,6,0.5c1.7,1,3.4,1.8,5.3,2.1
		c0.5,0.1,1,0.3,1.1,0.9c0.1,0.6-0.1,1.1-0.6,1.4c-1,0.8-2.1,0.6-3.1,0.4c-0.7-0.2-1.3-0.4-1.9-0.8c0.1,0.1,0.2,0.1,0.4,0.2"/>
	<path class="st16" d="M138.8,58.8C138.7,58.8,138.7,58.7,138.8,58.8c0-0.5-0.3-0.7-0.5-1c-0.7-1.5-0.3-3.2,1-4.1
		c1.4-0.9,3.2-0.7,4.3,0.5c1.1,1.1,1.2,2.9,0.3,4.1c-1,1.3-2.7,1.7-4.2,0.9C139.3,59,139.1,58.7,138.8,58.8z"/>
	<path class="st16" d="M151.7,53.1c1.8,0,3.2,1.3,3.3,3.2c0,1.9-1.4,3.3-3.2,3.3c-1.8,0-3.2-1.4-3.2-3.2
		C148.5,54.5,149.9,53.1,151.7,53.1z"/>
	<path class="st17" d="M133.9,55.6c-1.6-0.7-3.4-1.2-5.1-1.8C130.8,52.3,133.5,53.2,133.9,55.6z"/>
	<path class="st12" d="M139.1,122.6c3.7-4.9,8.2-8.9,13.3-12.2c0.8-0.5,1.3-0.4,1.8,0.4c0.4,0.8,0.8,1.6,1.2,2.3
		c-2.4,1.9-4.8,3.6-7.5,5.1c-0.3,0.2-0.7,0.6-1.1,0.2c-0.8-0.7-1.2-0.1-1.7,0.4c-1.1,1.4-2.8,2.2-4.2,3.3c-0.4,0.1-0.6,0.4-1,0.6
		C139.7,122.8,139.4,123.2,139.1,122.6z"/>
	<path class="st18" d="M139.1,122.6c0.7,0.3,1.2-0.5,2-0.4c-3.4,3.4-6.5,7.2-9.1,11.2c-0.5,0.7-0.9,1.5-1.4,2.2
		c-0.1,0.2-0.2,0.6-0.6,0.4c-0.3-0.2-0.6-0.4-0.5-0.8c0-0.1,0.1-0.1,0.1-0.2c1.3-3.2,2-6.6,3.4-9.8c0.7-1.6,1.8-3,2.4-4.7
		c0.5,1.4,1,2.8,0.6,4.3c-0.2,0.5,0,0.6,0.4,0.3C137.3,124.2,138.2,123.4,139.1,122.6z"/>
	<path class="st19" d="M106.3,130.6c1.4,0.5,2.9,0.9,4.3,1.4c-0.3,0.3-0.9,0.1-1.1,0.6c0.4,0.5,0.7,0.9,1.1,1.4
		c-0.4,0.3-0.9,0-1.3-0.1c-0.7-0.4-1.5-0.7-2.2-1.1C106.4,132.3,105.7,131.7,106.3,130.6z"/>
	<path class="st16" d="M122.5,69.9c-1.8,0-3.3-1.6-3.2-3.4c0.1-1.7,1.6-3.2,3.3-3.2c1.7,0,3.2,1.5,3.2,3.3
		C125.9,68.4,124.3,69.9,122.5,69.9z"/>
	<path class="st16" d="M109,66.6c0-1.8,1.5-3.2,3.2-3.2c1.8,0,3.3,1.5,3.2,3.3c0,1.8-1.5,3.2-3.2,3.2C110.4,69.9,109,68.4,109,66.6z
		"/>
	<path class="st16" d="M136.4,66.6c0,1.9-1.4,3.3-3.2,3.3c-1.7,0-3.2-1.5-3.2-3.2c0-1.8,1.5-3.3,3.2-3.3
		C134.9,63.3,136.3,64.8,136.4,66.6z"/>
	<path class="st20" d="M142.4,95.7c0.2,0.4,0.3,0.8,0.6,1.4c-0.6-0.4-0.7-0.8-0.9-1.2C142.3,95.8,142.4,95.7,142.4,95.7z"/>
	<path class="st0" d="M99.4,133c-1-3.5-1.1-7.1-1.9-10.5c-1.1-4.9-2.3-9.7-4.2-14.3c-0.2-0.5-0.4-1.1-0.8-1.6
		c-0.3-0.2-0.1-0.5,0-0.7c0.5-0.9,1-1.8,0.7-3c-0.1-0.5,0.3-0.7,0.8-0.9c-0.6-0.6-1.2-1.1-1.7-1.7c-0.3-0.3-0.7-0.5-0.5-1.1
		c0.5-0.1,0.9,0.1,1.4-0.1c0.7,0,1.4,0,2.1,0c-0.4,0.4-1,0-1.5,0.3c0.8,0.7,0.8,2.1,2.3,2.1c0.4,0,0.5,0.6,0.6,0.9
		c1.9,6.7,3.8,13.4,4.9,20.3c0,0.1,0.1,0.3,0.2,0.4c-0.4,0-0.8,0.1-1.2,0.1c-0.1,0-0.3,0.1-0.4,0.2c0.9,0.6-0.5,1.5,0.4,2.2
		c0.6,0.5,1.1,1.2,1.6,1.8c0.7,1.8,0.4,3.7,0.6,5.6c0,0.3-0.1,0.6-0.3,0.8C101.4,133.5,100.5,132.9,99.4,133z"/>
	<path class="st0" d="M91.9,99.2c0.9,1,1.8,1.9,2.9,3c-1.1-0.1-1.4,0.3-1.1,1.2c0.3,1.1-0.7,2-1.1,3c-1.7,1.8-3.8,3.1-5.9,4.4
		c-0.2-1.1,0.1-2.3,0.2-3.4c0.5-1.6,1-3.2,1.2-4.9c0.1-0.7,0-1.5-0.2-2.2c-0.1-0.2-0.2-0.5-0.3-0.7c-0.3-0.6-0.1-0.8,0.5-1
		c1.3-0.3,2.6-0.3,3.9,0.3l0,0.1C91.9,99.1,92,99.1,91.9,99.2C91.9,99.2,91.9,99.2,91.9,99.2z"/>
	<path class="st13" d="M91.9,99c-1.4,0-2.8-0.4-4.3,0.2c0.1,0.4,0.2,0.8,0.2,1.2c-1.4-1.8-2.1-3.9-2.8-6c-0.3-1-0.5-2.1-0.7-3.2
		C86.3,94.3,89.1,96.6,91.9,99z"/>
	<path class="st21" d="M106.7,128.5c-1.7-0.8-3-2-3.6-3.9C103.9,126.4,105.7,127,106.7,128.5L106.7,128.5z"/>
	<path class="st21" d="M106.7,128.5c0.7,0.2,1.3,0.5,1.9,0.9l0,0C107.9,129.4,107.2,129.1,106.7,128.5L106.7,128.5z"/>
	<path class="st21" d="M108.6,129.4c0.6-0.1,1.1,0.2,1.8,0.4C109.7,130,109.1,129.8,108.6,129.4L108.6,129.4z"/>
	<path class="st22" d="M105.6,128.5c-0.7-0.2-0.9-0.5-1.2-0.9C105,127.7,105.2,128,105.6,128.5z"/>
	<g>
		<path class="st11" d="M83.1,143.4c-3.2,0-6.5,0-9.7,0c-1.2,0-2.2-0.2-3.1-1c-1.6-1.4-3.4-1.9-5.4-1.7c-0.5,0-1.1,0.3-1.5-0.4
			c-0.5-1-1.7-1.8-1.5-3c0.6-3.4,0.4-6.7,0.3-10.1c-0.2-6.8-1.9-13.2-5.4-19c-1.3-2.2-2.7-3.3-5.5-2.2c0.9-1.4,2.2-2.4,3.7-3
			c4.1-1.9,8.4-3.5,12.7-5c0.7,0.1,0.4,0.6,0.3,1c-0.2,0.7-0.3,1.3-0.4,2c-0.2,0.9,0,1.6,0.9,2.1c0.1,0,0.2,0.1,0.3,0.2
			c1.7,1.1,1.8,1.1,0.3,2.4c-0.7,0.7-0.6,1.2-0.2,2c2.8,5.2,5.5,10.4,8.1,15.7c2.9,6,5.8,12.1,8.3,18.3c0.1,0.4,0.3,0.7,0.4,1.1
			c0.1,0.5,0,0.9-0.6,0.9C84.5,143.7,83.8,143.9,83.1,143.4z"/>
		<path class="st11" d="M55.9,152.9c-0.1-1.1,0.5-0.8,1.1-0.6c4.8,1.8,9.4,3.9,14.5,4.9c3.4,0.7,6.9,1.4,10.3,2.1
			c0.6,0.1,0.8,0.1,0.7-0.6c-0.2-1.6-0.4-3.3,0.4-4.8c1.7,0.4,3.2,1.3,4.3,2.8c0.2,1.5-0.3,2.9-0.4,4.3c-0.3,0.9-0.1,2.1-1,2.8
			c-9.4,0-18.7,0-28.1,0c-0.4,0-0.7,0-0.8-0.6C56.6,159.7,56.2,156.3,55.9,152.9z"/>
		<path class="st11" d="M103.9,124.1c-0.8-0.2-1.3-0.9-2.1-1.1c-0.5-0.2-0.5-0.7-0.6-1.1c-1.2-6.4-2.8-12.7-4.6-18.9
			c-0.2-0.7-0.5-1.3-1.3-1.5c-0.8-0.3-1.1-1.1-1.5-1.9c-0.2-0.4,0.1-0.5,0.4-0.5c0.4,0,0.8,0.1,1.2-0.1c0.7-0.3,1-0.9,1.2-1.5
			c2.3,0.4,2.8,1,3.3,3.4c0.6,3.2,0.6,6.4,1.4,9.5c0.6,2.4,1.7,4.7,2,7.2c0.2,1.4,0.4,2.7,0.4,4.1
			C104.1,122.5,104.6,123.3,103.9,124.1z"/>
		<path class="st11" d="M103.9,124.1c0.1-0.8,0-1.5-0.2-2.3c0.1,0.1,0.2,0.3,0.2,0.2c1.4-0.4,3-0.5,4.1-1.5c0.8-0.7,1.7-1.2,2.6-1.7
			c1.1-0.6,2.2-1.3,3.3-2c0.2,0.7-0.6,0.9-0.7,1.5c-0.6,1.5,0,2.9,0.6,4.2c0.3,0.6,0.1,0.8-0.4,1c-0.9,1-0.7,1.6,1,3.2
			c-0.7,0.5-1.4,0.8-2.4,0.6c-1.8-0.2-3.6-0.2-5.2-1.2C105.9,125.5,105.1,124.5,103.9,124.1z"/>
		<path class="st0" d="M94.9,148.5c0.9,0,1.8,0.4,2.7,0.1c0.7-0.3,1.1-0.7,1.1-1.5c0-0.9-0.7-0.6-1.2-0.7c-1.7-0.4-3.3-1-4.7-2
			c-1.2-0.8-2.3-1-3.7-0.9c-0.9,0-1.7,0-2.6,0c-1.4-8.7-3.2-17.4-6-25.8c-1.3-3.9-2.5-7.8-3.8-11.6c2.2-0.9,4.3-1.8,6.7-2.1
			c0.9,0.6,1.6,1.4,2.2,2.4c0.3,0.5,0.7,0.9,1.3,1.1c0.6,1-0.2,2.1,0.1,3c-0.2,0.2,0.1,0.3-0.1,0.2c0,0,0-0.1,0-0.1
			c1.8-1.3,3.8-2.5,5.4-4.1c0.1-0.1,0.2,0,0.3,0c0.5,0.3,0.7,0.8,0.9,1.3c2.2,5.5,3.7,11.3,4.8,17.1c0.4,2.4,0.7,4.8,1.2,7.2
			c0.1,0.3,0.1,0.6-0.1,0.9c-0.7,0.3-0.8,0.6-0.2,1.1c0.3,0.3,0.7,0.6,0.7,1c1,0.9,1,2.2,1.3,3.4c0,0.4-0.1,0.9,0.1,1.3
			c0.1,0.3,0.1,0.7,0.2,1c0.5,2.3,1.5,4.1,1.9,6.8c0.4,2.4,0.8,4.7,1.2,7.1c-0.4,2.1-2.1,3.1-3.7,4c-2.7,1.5-5.6,1.9-8.6,2.1
			c-2,0.1-3.9,0-5.9,0c0.2-1.5,0.4-2.9,0.5-4.4c1.3,0.3,2.5,1.3,3.9,1.3c0.2,0,0.6,0.1,0.7,0c0.7-1.1,1.8-0.7,2.8-0.9
			c0.4-0.1,0.6-0.5,0.6-0.9c-0.1-0.9,0.4-0.8,0.9-0.5c0.3,0.5,0.1,1.1,0.1,1.7c-0.1,0.3-0.1,0.7-0.2,1c-0.1,0.3-0.2,0.6-0.3,0.9
			c0.2-0.2,0.2-0.5,0.3-0.7c0.1-0.3,0.1-0.7,0.3-1c0.1-0.6-0.1-1.3,0.1-1.9c0.1,0,0.2-0.1,0.2-0.1c0.7-1.7,2.2-1.6,3.6-1.5
			c0.1,0,0.2,0,0.2,0c0.6,0,1.2,0,1.3-0.7c0.1-0.6-0.4-1-1-1.1c-1.7-0.2-3-1.2-4.5-1.9c-0.3-0.1-0.5-0.4-0.8-0.5
			C94.9,149.3,94.6,149,94.9,148.5z"/>
		<path class="st11" d="M102.5,133.7c0-2-0.2-4-0.4-6c0-0.1,0.1-0.3,0.1-0.4c0.7,0.8,1.5,1.6,2.2,2.3c0.8,1.6,0.7,3.2,0.5,4.9
			C103.9,134.8,103.2,134.1,102.5,133.7z"/>
		<path class="st11" d="M104.9,134.6c-0.2-1.6-0.3-3.3-0.5-4.9c0.6,0.3,1.3,0.6,1.9,0.9c-0.1,1,0.5,1.6,1.4,2.1
			c0.6,0.3,1.2,0.6,1.7,0.9c-1,0.4-2.1,0.8-3.1,1.2C105.7,134.9,105.3,134.9,104.9,134.6z"/>
		<path class="st0" d="M101,138.7c-0.4-1.2-0.7-2.4-1.1-3.5c1.3,0.7,2.1,1.8,3.1,2.8c-0.5,0.9-0.2,1.9-0.2,2.9
			c0.1,1.4,0.3,2.9,0.4,4.3c-0.5-0.1-0.6-0.6-0.7-0.9c-0.5-1.2-0.7-2.4-1.1-3.6c0-0.4-0.1-0.7-0.3-1
			C101.1,139.2,100.9,139,101,138.7z"/>
	</g>
</g>
</svg>
