<?xml version="1.0" encoding="utf-8"?>
<!-- Generator: Adobe Illustrator 22.0.1, SVG Export Plug-In . SVG Version: 6.00 Build 0)  -->
<svg version="1.1" id="Capa_1" xmlns="http://www.w3.org/2000/svg" xmlns:xlink="http://www.w3.org/1999/xlink" x="0px" y="0px"
	 viewBox="0 0 218.5 235.3" style="enable-background:new 0 0 218.5 235.3;" xml:space="preserve">
<style type="text/css">
	.st0{fill:#F7B948;}
	.st1{fill:#363636;}
	.st2{fill:#FEFEFE;}
</style>
<g>
	<path class="st0" d="M61.3,149.1c-0.4,0-0.8-0.4-0.8-0.8c0-9.7,0-19.5,0-29.2c0-0.9,0.3-1.1,1.1-1.1c8.8,0,17.6,0,26.4,0
		c0.4,0,0.8,0,1.2,0c1.1,0,2.2,0,3.3,0c10.8,0,21.5,0,32.3,0c1.1,0,2.2,0,3.3,0c4.7,0,9.5,0,14.2,0c4.6,0,9.2,0,13.8,0
		c0.4,0,0.8,0.4,0.8,0.8c0,9.8,0,19.7,0,29.5c0,0.4-0.3,0.8-0.8,0.8C124.5,149.1,92.9,149.1,61.3,149.1z M100.9,135.8
		c1.1,1.1,1.9,1.9,2.8,2.8c0.1,0.1,0.2,0.3,0.2,0.4c-0.1,0.8,0.5,0.8,1,0.8c0.5,0,0.9,0,1.4,0c0.7,0.1,0.8-0.3,0.8-0.8
		c-0.1-1-0.4-1.9-1.2-2.6c-0.5-0.5-0.6-0.7-0.1-1.3c1.2-1.3,1.6-3,0.9-4.7c-0.6-1.7-1.9-2.7-3.7-3c-1.5-0.2-3,0-4.5-0.1
		c-0.7,0-0.9,0.2-0.9,0.8c0,3.1,0,6.3,0,9.4c0,2.4,0,2.3,2.4,2.3c0.6,0,0.8-0.2,0.8-0.8C100.9,138,100.9,137,100.9,135.8z
		 M74.4,135.1c-0.1-1.2,0.2-2.7-0.1-4.1c-0.5-2.2-2.7-3.8-4.8-3.6c-2.5,0.3-4.2,2.1-4.3,4.5c0,1.9,0,3.8,0,5.6c0,2.3,0,2.3,2.3,2.2
		c0.6,0,0.7-0.2,0.7-0.8c0-2.5,0.1-2.5,2.5-2.3c0,0,0.1,0,0.1,0c0.4,0,0.6,0.1,0.5,0.5c0,0.6,0,1.3,0,1.9c-0.1,0.8,0.5,0.8,0.9,0.6
		c0.7-0.3,1.9,0.8,2.1-0.6C74.6,137.9,74.4,136.6,74.4,135.1z M141.3,133.5c0,1.9,0,3.7,0,5.6c0,0.5,0.2,0.7,0.7,0.7
		c1,0,1.9,0,2.9-0.1c3.2-0.2,5.7-2.9,5.8-6.1c0-3.2-2.3-5.8-5.5-6.2c-1-0.1-2,0-3-0.1c-0.7,0-0.8,0.2-0.8,0.9
		C141.3,129.9,141.3,131.7,141.3,133.5z M132,131.9c0,2.4,0,4.7,0,7.1c0,0.7,0.2,0.8,0.9,0.8c1.5,0,3.1,0,4.6,0c2.4,0,2.4,0,2.3-2.5
		c0-0.5-0.2-0.6-0.7-0.6c-1.1,0-2.2,0-3.3,0c-0.4,0-0.7-0.3-0.7-0.6c0-0.6,0.1-1,0.8-0.9c0.3,0,0.7,0,1,0c3.1,0,3.1,0.2,2.9-2.5
		c0-0.5-0.2-0.6-0.7-0.6c-1,0-2.1,0-3.1,0c-0.6,0-0.9,0-0.9-0.8c0-0.7,0.3-0.8,0.9-0.8c0.5,0,0.9,0,1.4,0c2.5,0,2.5,0,2.4-2.5
		c0-0.7-0.3-0.8-1.3-0.6c-1.7,0.2-3.4,0.2-5.1,0c-1.1-0.2-1.3,0-1.3,0.7C132,129.3,132,130.6,132,131.9z M86.9,133.4
		c0,1.5,0,2.9,0,4.4c0,1.9,0,1.9,1.9,1.9c1.4,0,1.2,0.1,1.2-1.2c0-1.8,0-1.8,1.8-1.9c2.4-0.2,4.3-2.1,4.4-4.4c0.1-2.4-1.6-4.4-4-4.8
		c-1.5-0.2-3.1,0-4.6-0.1c-0.7,0-0.8,0.2-0.8,0.8C86.9,129.9,86.9,131.7,86.9,133.4z M108.7,133.6c0,0.6,0,1.3,0,1.9
		c0.2,2.4,2.1,4.2,4.5,4.3c2.5,0.1,4.5-1.6,4.8-4c0.2-1.4,0.2-2.9,0-4.3c-0.3-2.3-2-3.9-4.4-4.1c-2-0.2-4.1,1.3-4.7,3.3
		C108.6,131.6,108.7,132.6,108.7,133.6z M76,133.5c0,1.4,0,2.8,0,4.2c0,2,0,2,2.1,2.1c0.8,0,1.1-0.2,1-1c-0.1-0.6-0.2-1.4,0.1-1.8
		c0.4-0.6,1.2-0.2,1.8-0.3c2.4-0.2,4.3-2.2,4.3-4.5c0-2.4-1.6-4.4-4.1-4.7c-1.5-0.2-2.9,0-4.4-0.1c-0.7,0-0.8,0.3-0.8,0.9
		C76,129.9,76,131.7,76,133.5z M124.9,135.7c-0.7-1.9-1.5-3.7-2.2-5.6c-0.1-0.2-0.1-0.4-0.1-0.7c-0.1-2.3,0-2.3-2.4-2.2
		c-0.6,0-0.7,0.2-0.7,0.8c-0.1,1.7,0.1,3.3,0.9,4.9c0.7,1.4,1.2,2.8,1.7,4.3c1,2.6,1,2.5,3.8,2.6c0.8,0,1.1-0.3,1.4-1.4
		c0.4-1.9,1.1-3.7,2.1-5.4c0.7-1.2,1.1-2.3,1-3.6c0-1.1-1-2.1-2.1-2.1c-0.8,0-1.1,0.1-1,0.9C127.6,131,125.8,133.2,124.9,135.7z"/>
	<path class="st1" d="M128.1,118c-1.1,0-2.2,0-3.3,0c-0.5-1.4-1.4-2.6-2.2-3.8c-4.1-6.3-5.2-13.2-4.2-20.5c0.6-4.2,2.3-8.1,4.7-11.6
		c1.4-2,2.2-4.3,2.5-6.7c1.5-9.9-6.1-19.1-16.1-19.6c-12.7-0.6-21.5,12.4-16.4,24c0.8,1.7,2,3.1,2.8,4.8c5.2,10.3,4.8,20.4-1.5,30.1
		c-0.7,1.1-1.4,2-1.8,3.3c-1.1,0-2.2,0-3.3,0c0.5-1.8,1.4-3.3,2.4-4.7c2.4-3.3,3.8-6.9,4.3-10.9c0.9-6.4-0.1-12.4-3.8-17.8
		c-2.6-3.8-3.9-8-3.6-12.7c0.4-6.2,3-11.3,8-15c10.2-7.6,24.1-4.5,30,6.7c3.6,6.7,3.3,13.5-0.7,20c-2.1,3.4-3.9,6.9-4.4,11
		c-0.9,6.6,0.2,12.8,4,18.4C126.5,114.4,127.6,116,128.1,118z"/>
	<path class="st2" d="M92.5,118c0.4-1.2,1.2-2.2,1.8-3.3c6.2-9.8,6.7-19.8,1.5-30.1c-0.8-1.6-2-3.1-2.8-4.8
		c-5.1-11.6,3.7-24.6,16.4-24c10.1,0.5,17.6,9.7,16.1,19.6c-0.4,2.4-1.2,4.7-2.5,6.7c-2.4,3.5-4.1,7.3-4.7,11.6
		c-1,7.3,0.1,14.2,4.2,20.5c0.8,1.2,1.7,2.4,2.2,3.8C114,118,103.3,118,92.5,118z M108.7,60.4c0-1.6,0-1.6-1.1-1.5
		c-6.7,0.5-12.2,5.9-12.8,12.5c-0.1,1.5-0.1,1.5,1.3,1.5c0.2,0,0.4,0,0.7,0c0.8,0.1,1-0.1,1.1-1c0.6-5.3,4.5-9.3,9.4-9.8
		C108.7,61.9,108.7,61.9,108.7,60.4C108.7,60.5,108.7,60.5,108.7,60.4z M97.8,76c-0.8,0-1.6,0.7-1.5,1.6c0,0.9,0.7,1.5,1.6,1.5
		c0.8,0,1.5-0.7,1.5-1.5C99.3,76.7,98.6,76,97.8,76z"/>
	<path class="st1" d="M100.9,135.8c0,1.2,0,2.2,0,3.2c0,0.6-0.2,0.7-0.8,0.8c-2.4,0.1-2.4,0.1-2.4-2.3c0-3.1,0-6.3,0-9.4
		c0-0.7,0.2-0.9,0.9-0.8c1.5,0.1,3-0.1,4.5,0.1c1.8,0.3,3,1.3,3.7,3c0.7,1.7,0.3,3.4-0.9,4.7c-0.5,0.6-0.4,0.9,0.1,1.3
		c0.8,0.7,1.1,1.5,1.2,2.6c0,0.6-0.1,0.9-0.8,0.8c-0.5,0-0.9,0-1.4,0c-0.5,0-1.1,0.1-1-0.8c0-0.1-0.1-0.3-0.2-0.4
		C102.9,137.7,102,136.8,100.9,135.8z M100.9,131.9c0,1.8-0.2,1.6,0.9,1.6c1.4,0,2.1-0.5,2.1-1.5c0-1-0.7-1.5-2.1-1.6
		C100.5,130.3,101,131.3,100.9,131.9z"/>
	<path class="st1" d="M74.4,135.1c0,1.5,0.1,2.8,0,4c-0.2,1.4-1.4,0.3-2.1,0.6c-0.4,0.1-1,0.2-0.9-0.6c0-0.6,0-1.3,0-1.9
		c0-0.4-0.1-0.6-0.5-0.5c0,0-0.1,0-0.1,0c-2.4-0.1-2.5-0.1-2.5,2.3c0,0.6-0.1,0.8-0.7,0.8c-2.3,0-2.3,0.1-2.3-2.2c0-1.9,0-3.8,0-5.6
		c0.1-2.5,1.8-4.2,4.3-4.5c2.2-0.2,4.4,1.3,4.8,3.6C74.6,132.4,74.4,133.9,74.4,135.1z M69.8,133.5c0.7-0.2,1.7,0.5,1.6-1
		c-0.1-1.3-0.6-2.1-1.6-2.1c-1,0-1.5,0.8-1.6,2.2C68.1,134.1,69.3,133.2,69.8,133.5z"/>
	<path class="st1" d="M141.3,133.5c0-1.8,0-3.6,0-5.4c0-0.6,0.1-0.9,0.8-0.9c1,0.1,2,0,3,0.1c3.2,0.4,5.6,3,5.5,6.2
		c0,3.2-2.5,5.8-5.8,6.1c-1,0.1-1.9,0-2.9,0.1c-0.5,0-0.7-0.2-0.7-0.7C141.3,137.2,141.3,135.4,141.3,133.5z M144.5,133.5
		c0,0.8,0,1.7,0,2.5c0,0.6,0.2,0.7,0.7,0.5c1.4-0.4,2.3-1.5,2.4-2.9c0-1.5-0.8-2.7-2.2-3.1c-0.6-0.2-0.9-0.1-0.8,0.6
		C144.5,131.9,144.5,132.7,144.5,133.5z"/>
	<path class="st1" d="M132,133.4c0-1.8,0-3.6,0-5.4c0-0.6,0.1-0.8,0.8-0.8c2.1,0,4.2,0,6.3,0c0.5,0,0.7,0.2,0.7,0.7
		c0.1,2.5,0.1,2.5-2.4,2.5c-0.5,0-0.9,0-1.4,0c-0.6,0-0.9,0.1-0.9,0.8c0,0.8,0.4,0.8,0.9,0.8c1,0,2.1,0,3.1,0c0.5,0,0.7,0.1,0.7,0.6
		c0.1,2.5,0.1,2.5-2.4,2.5c-0.5,0-0.9,0-1.4,0c-0.7-0.1-0.9,0.2-0.9,0.9c0,0.5,0.2,0.7,0.7,0.6c1.1,0,2.3,0,3.4,0
		c0.5,0,0.6,0.1,0.7,0.6c0.1,2.5,0.1,2.5-2.3,2.5c-1.5,0-3.1,0-4.6,0c-0.6,0-0.9-0.2-0.9-0.8C132,137.1,132,135.3,132,133.4z"/>
	<path class="st1" d="M86.9,133.4c0-1.8,0-3.6,0-5.4c0-0.6,0.1-0.9,0.8-0.8c1.5,0.1,3.1-0.1,4.6,0.1c2.4,0.4,4.1,2.4,4,4.8
		c-0.1,2.4-2,4.3-4.4,4.4c-1.8,0.1-1.8,0.1-1.8,1.9c0,1.3,0.2,1.2-1.2,1.2c-1.9,0-1.9,0-1.9-1.9C86.9,136.4,86.9,134.9,86.9,133.4z
		 M90,132c0.2,0.6-0.5,1.7,1,1.6c1.4-0.1,2.1-0.5,2.1-1.6c0-1-0.7-1.5-2.1-1.6C89.5,130.3,90.2,131.4,90,132z"/>
	<path class="st1" d="M108.7,133.6c0-1-0.1-1.9,0.2-2.9c0.6-2,2.7-3.5,4.7-3.3c2.3,0.2,4.1,1.8,4.4,4.1c0.2,1.4,0.2,2.9,0,4.3
		c-0.3,2.4-2.3,4.1-4.8,4c-2.4-0.1-4.3-1.9-4.5-4.3C108.6,134.8,108.7,134.2,108.7,133.6z M114.9,133.5
		C114.9,133.5,114.9,133.5,114.9,133.5c0-0.5,0-1.1,0-1.6c-0.1-0.9-0.8-1.5-1.6-1.4c-0.8,0-1.4,0.6-1.4,1.5c0,1.1,0,2.1,0,3.2
		c0,0.9,0.7,1.5,1.5,1.5c0.8,0,1.5-0.7,1.6-1.6C114.9,134.5,114.9,134,114.9,133.5z"/>
	<path class="st1" d="M76,133.5c0-1.8,0-3.6,0-5.4c0-0.6,0.1-0.9,0.8-0.9c1.5,0.1,2.9-0.1,4.4,0.1c2.4,0.3,4.1,2.3,4.1,4.7
		c0,2.4-1.9,4.3-4.3,4.5c-0.6,0.1-1.5-0.3-1.8,0.3c-0.3,0.5-0.1,1.2-0.1,1.8c0.1,0.8-0.2,1.1-1,1c-2.1-0.1-2.1,0-2.1-2.1
		C76,136.3,76,134.9,76,133.5z M79.1,132c0.2,0.6-0.5,1.7,1,1.6c1.4-0.1,2.1-0.5,2.1-1.6c0-1-0.7-1.4-2.1-1.5
		C78.7,130.3,79.2,131.2,79.1,132z"/>
	<path class="st1" d="M124.9,135.7c0.9-2.5,2.7-4.7,2.4-7.5c-0.1-0.8,0.2-0.9,0.9-0.9c2.2,0,2.2,0,2.2,2.2c0,0.8-0.2,1.6-0.5,2.4
		c-1,2.4-1.9,4.8-2.9,7.2c-0.2,0.6-0.5,0.8-1.2,0.8c-2.8,0-2.8,0-3.8-2.6c-0.6-1.4-1.1-2.9-1.7-4.3c-0.8-1.6-0.9-3.2-0.9-4.9
		c0-0.5,0.1-0.8,0.7-0.8c2.3,0,2.3-0.1,2.4,2.2c0,0.2,0,0.5,0.1,0.7C123.4,132,124.2,133.9,124.9,135.7z"/>
	<path class="st1" d="M108.7,60.4C108.7,60.5,108.7,60.5,108.7,60.4c0,1.5,0,1.5-1.4,1.6c-4.9,0.5-8.9,4.6-9.4,9.8
		c-0.1,0.8-0.4,1.1-1.1,1c-0.2,0-0.4,0-0.7,0c-1.5,0-1.5,0-1.3-1.5c0.6-6.6,6.2-12,12.8-12.5C108.7,58.8,108.7,58.8,108.7,60.4z"/>
	<path class="st1" d="M97.8,76c0.9,0,1.5,0.7,1.5,1.6c0,0.8-0.6,1.5-1.5,1.5c-0.9,0-1.6-0.6-1.6-1.5C96.2,76.7,96.9,76,97.8,76z"/>
	<path class="st0" d="M100.9,131.9c0.1-0.6-0.5-1.6,1-1.5c1.4,0.1,2.1,0.6,2.1,1.6c0,1-0.7,1.5-2.1,1.5
		C100.7,133.5,100.9,133.7,100.9,131.9z"/>
	<path class="st0" d="M69.8,133.5c-0.5-0.3-1.7,0.6-1.6-0.9c0.1-1.4,0.6-2.1,1.6-2.2c1,0,1.5,0.7,1.6,2.1
		C71.5,134,70.4,133.3,69.8,133.5z"/>
	<path class="st0" d="M144.5,133.5c0-0.8,0-1.6,0-2.3c0-0.7,0.3-0.8,0.8-0.6c1.4,0.4,2.3,1.6,2.2,3.1c0,1.4-1,2.5-2.4,2.9
		c-0.5,0.1-0.7,0.1-0.7-0.5C144.5,135.2,144.5,134.3,144.5,133.5z"/>
	<path class="st0" d="M90,132c0.2-0.6-0.5-1.7,1-1.6c1.4,0.1,2.1,0.5,2.1,1.6c0,1.1-0.7,1.5-2.1,1.6C89.5,133.6,90.2,132.6,90,132z"
		/>
	<path class="st0" d="M114.9,133.5c0,0.5,0,1.1,0,1.6c-0.1,0.9-0.8,1.6-1.6,1.6c-0.8,0-1.4-0.6-1.5-1.5c0-1.1,0-2.1,0-3.2
		c0-0.9,0.6-1.4,1.4-1.5c0.8,0,1.5,0.5,1.6,1.4C114.9,132.4,114.9,132.9,114.9,133.5C114.9,133.5,114.9,133.5,114.9,133.5z"/>
	<path class="st0" d="M79.1,132c0.1-0.7-0.4-1.7,1-1.6c1.4,0.1,2,0.5,2.1,1.5c0,1-0.7,1.5-2.1,1.6C78.6,133.6,79.3,132.5,79.1,132z"
		/>
</g>
</svg>
