<?xml version="1.0" encoding="utf-8"?>
<!-- Generator: Adobe Illustrator 22.0.1, SVG Export Plug-In . SVG Version: 6.00 Build 0)  -->
<svg version="1.1" id="Capa_1" xmlns="http://www.w3.org/2000/svg" xmlns:xlink="http://www.w3.org/1999/xlink" x="0px" y="0px"
	 viewBox="0 0 218.5 235.3" style="enable-background:new 0 0 218.5 235.3;" xml:space="preserve">
<style type="text/css">
	.st0{fill:#56BAA9;}
</style>
<g>
	<path class="st0" d="M139.1,197.1c0-0.6,0.4-0.9,0.7-1.3c2.5-3.8,5.1-7.5,7.5-11.3c0.9-1.4,1.8-1.8,3.4-1.8
		c7.4,0.1,14.9,0,22.3,0.1c1.3,0,1.5-0.4,1.5-1.5c0-10.4,0-20.8,0-31.3c0-1.1-0.2-1.5-1.4-1.4c-6.2,0.1-12.5,0.1-18.7,0
		c-1.3,0-1.5,0.4-1.5,1.5c0.1,3.4,0,6.7,0,10.1c0,0.9-0.1,1.8-0.4,2.6c-0.6,1.4-2.1,2.1-3.5,2c-1.5-0.2-2.7-1.2-3.1-2.8
		c-0.1-0.5-0.2-1-0.2-1.5c0-10.3,0-20.5,0-30.8c0-2.5,1-3.9,2.9-4.3c2-0.4,3.7,0.7,4.1,2.7c0.1,0.7,0.2,1.3,0.2,2
		c0,3.4,0,6.8,0,10.2c0,0.8,0.2,1.2,1.1,1.2c6.4,0,12.9,0,19.3,0c0.9,0,1.2-0.2,1.1-1.1c0-10.7,0-21.4,0-32c0-1.3-0.7-1.1-1.5-1.1
		c-10.1,0-20.1,0-30.2,0c-2.4,0-3.7-0.8-4.2-2.6c-0.6-2,0.6-4,2.7-4.4c0.7-0.1,1.3-0.1,2-0.1c9.9,0,19.7,0,29.6,0
		c1.2,0,1.6-0.2,1.6-1.5c-0.1-14.7,0-29.3,0-44c0-1.2-0.3-1.5-1.4-1.5c-6.2,0.1-12.5,0.1-18.7,0c-1.1,0-1.5,0.3-1.5,1.4
		c0.1,8.7,0,17.3,0,26c0,3.8-1.2,5-5,5c-6.3,0-12.6,0-18.9,0c-1.2,0-1.5,0.3-1.4,1.5c0.1,4.2,0,8.5,0,12.7c0,1.6-0.6,2.8-2.1,3.5
		c-1.3,0.6-2.6,0.5-3.8-0.5c-0.9-0.8-1.3-1.8-1.3-3c0-5.8,0-11.7,0-17.5c0-2.5,1.5-3.8,4.2-3.8c6.5,0,13,0,19.5,0
		c1.1,0,1.5-0.2,1.5-1.4c-0.1-7.5-0.1-15,0-22.4c0-1.2-0.3-1.4-1.5-1.4c-12.2,0-24.5,0-36.7,0c-1.2,0-1.6,0.3-1.5,1.5
		c0.1,6.4,0,12.8,0,19.2c0,1,0,2.1-0.7,3c-0.8,1.1-2,1.7-3.3,1.5c-1.4-0.2-2.5-1-2.9-2.4c-0.2-0.7-0.3-1.4-0.3-2.1
		c0-6.4,0-12.9,0-19.3c0-0.9-0.1-1.3-1.1-1.2c-2.5,0-2.5,0-2.5-2.5c-0.1-2.8,0.2-5.6-0.4-8.3c-0.3-1.2-0.8-2.3-1.3-3.5
		c0.6,0,1.1,0,1.6,0c28.4,0,56.9,0,85.3,0c5.6,0,8.4,2.8,8.4,8.5c0,47,0,93.9,0,140.9c0,4.6-1.4,7.8-5.9,9.2
		C168.4,197.1,153.7,197.1,139.1,197.1z"/>
	<path class="st0" d="M30.4,44.1c0.4-0.1,0.4-0.6,0.5-0.9c1.3-3,3.5-4.6,6.7-4.6c10.1-0.1,20.2,0,30.6,0c-2.3,4.3-1.7,8.9-1.7,13.3
		c0,1.1-0.6,1.1-1.3,1.1c-6.2,0-12.5,0-18.7,0c-1.2,0-1.6,0.2-1.6,1.5c0,20.6,0,41.3,0,61.9c0,1.3,0.4,1.5,1.5,1.5
		c2.6-0.1,5.3-0.1,7.9,0c1.2,0.1,1.4-0.4,1.4-1.5c0-9.9,0-19.7,0-29.6c0-0.7,0-1.4,0.2-2.1c0.3-1.7,1.7-2.8,3.4-2.8
		c1.7,0,3,1.1,3.5,2.7c0.2,0.7,0.2,1.4,0.2,2.1c0,9.9,0,19.8,0,29.7c0,1.2,0.3,1.4,1.4,1.4c4.1-0.1,8.3,0,12.4,0
		c2.7,0,4.2,1.4,4.2,4.1c0,4.5,0,9,0,13.5c0,1.6-0.6,3-2.1,3.7c-1.3,0.6-2.6,0.5-3.8-0.5c-1.1-0.8-1.3-2-1.3-3.3c0-3,0-6,0-9
		c0-1-0.2-1.3-1.3-1.3c-8.8,0-17.5,0-26.3,0c-1,0-1.3,0.3-1.3,1.3c0,18.4,0,36.7,0,55.1c0,1,0.3,1.3,1.3,1.3c12.4,0,24.8,0,37.2,0
		c0.9,0,1.2-0.2,1.2-1.2c0-7.6,0-15.3,0-22.9c0-1-0.4-1.1-1.3-1.1c-6.6,0-13.1,0-19.7,0c-2.3,0-3.6-0.9-4.1-2.6
		c-0.6-2.1,0.7-4.2,2.9-4.6c0.6-0.1,1.1-0.1,1.7-0.1c13.6,0,27.1,0,40.7,0c3.2,0,4.9,1.3,4.9,3.6c-0.1,2.3-1.8,3.5-4.9,3.5
		c-4,0-7.9,0-11.9,0c-0.9,0-1.2,0.2-1.2,1.2c0,7.6,0,15.3,0,22.9c0,1,0.3,1.2,1.2,1.2c4.3,0,8.6,0,12.8,0c0.9,0,1.3,0.2,1.8,1
		c2.6,4.1,5.3,8.1,8,12.1c0.3,0.4,0.8,0.7,0.6,1.3c-26.7,0-53.5,0-80.2,0c-2.7-1-4.5-2.9-5.6-5.6C30.4,142.4,30.4,93.3,30.4,44.1z"
		/>
	<path d="M126.1,197.1c-2.3-1.2-3.6-3.4-5-5.5c-2.4-3.7-4.9-7.3-7.3-10.9c-2.2-3.4-1-7.3,2.5-8.5c1-0.3,2-0.3,3.1-0.3
		c0.8,0,1.1-0.2,1.1-1c0-11.2,0-22.4,0-33.6c0-1.1-0.6-0.9-1.3-0.9c-6.6,0-13.1,0-19.7,0c-4,0-6.9-2.1-7.7-5.6
		c-0.2-0.8-0.2-1.7-0.2-2.6c0-6.4,0-12.8,0-19.2c0-1.1-0.2-1.5-1.4-1.5c-3.5,0-6.9,0.3-10.4-0.1c-3.5-0.4-6-3.1-6.2-6.6
		c0-0.4,0-0.8,0-1.2c0-17.6,0-35.3,0-52.9c0-4.1,1.9-6.8,5.3-7.7c4.4-1.2,8.9,1.9,9,6.5c0.1,4.2,0,8.5,0,12.7c0,11.2,0,22.4,0,33.6
		c0,1.2,0.3,1.5,1.4,1.4c2.9-0.1,5.9,0,8.8,0c4.8,0,7.7,2.9,7.8,7.7c0,6.4,0.1,12.8,0,19.2c0,1.5,0.2,2,1.9,2
		c6.1-0.1,12.3,0.1,18.4-0.1c4.9-0.1,8.7,2.7,8.6,8.5c-0.2,13.3,0,26.6-0.1,39.9c0,1.3,0.4,1.7,1.6,1.6c2.4-0.2,4.4,0.7,5.6,2.9
		c1.2,2.2,0.6,4.2-0.7,6.2c-2.7,4-5.4,7.9-8,12c-1.2,1.8-2.4,3.4-4.5,4.1C127.9,197.1,127,197.1,126.1,197.1z"/>
	<path class="st0" d="M30.4,191.5c1,2.7,2.9,4.6,5.6,5.6c0,0,0,0-0.1,0C32.9,197.1,30.4,194.6,30.4,191.5L30.4,191.5z"/>
</g>
</svg>
