<?xml version="1.0" encoding="utf-8"?>
<!-- Generator: Adobe Illustrator 22.0.1, SVG Export Plug-In . SVG Version: 6.00 Build 0)  -->
<svg version="1.1" id="Capa_1" xmlns="http://www.w3.org/2000/svg" xmlns:xlink="http://www.w3.org/1999/xlink" x="0px" y="0px"
	 viewBox="0 0 218.5 235.3" style="enable-background:new 0 0 218.5 235.3;" xml:space="preserve">
<style type="text/css">
	.st0{fill:#010404;}
	.st1{fill:#9DA5A3;}
	.st2{fill:#211F21;}
	.st3{fill:#ACB0B3;}
	.st4{fill:#7F8385;}
	.st5{fill:#5E3918;}
	.st6{fill:#DBAF8D;}
	.st7{fill:#A2131B;}
	.st8{fill:#DAAF8C;}
	.st9{fill:#5D3A1C;}
	.st10{fill:#F0C299;}
	.st11{fill:#4B3017;}
	.st12{fill:#4C3017;}
	.st13{fill:#5D3A1D;}
	.st14{fill:#A2121B;}
	.st15{fill:#9EA2A3;}
	.st16{fill:#CED1D3;}
	.st17{fill:#F9FAF8;}
	.st18{fill:#AD7677;}
	.st19{fill:#C7BDBE;}
	.st20{fill:#302F32;}
	.st21{fill:#3E3F40;}
	.st22{fill:#333334;}
	.st23{fill:#909497;}
	.st24{fill:#EEBE96;}
	.st25{fill:#E5B891;}
	.st26{fill:#E6E8E9;}
	.st27{fill:#EEC199;}
	.st28{fill:#F7F9F8;}
	.st29{fill:#0F0F0F;}
</style>
<g>
	<path class="st0" d="M118,34c-0.2,0-0.3-0.1-0.5-0.1c0.2-1,0.3-1.9,0.7-2.8c0.8-2,2-3.6,3.9-4.7c1.4-0.8,2.9-1.3,4.6-1.5
		c2.2-0.3,4.3,0,6.2,0.9c2.4,1.1,4,3,4.6,5.7c0.1,0.3,0,0.7,0.2,1.1c0,1,0,2,0,3c-0.1,0.1-0.3,0.2-0.3,0.4c-0.3,1.4-1.2,2.5-2.2,3.6
		c-1.2,1.3-2.5,2.5-3.7,3.7c-1,1-1.2,2.3-1.1,3.7c-0.1,0.6,0.2,1.2-0.2,1.8c-1.8-0.1-3.6,0-5.4,0c0-1.8-0.2-3.5,0.2-5.3
		c0.1-0.5,0.3-0.9,0.6-1.2c0.6-0.8,1.3-1.5,2-2.2c1.3-1.3,2.8-2.4,3.7-4c0.3-0.5,0.4-1,0.4-1.5c0-0.1,0.1-0.1,0.1-0.2
		c0.2-1.4-0.7-3.1-1.9-3.8c-2.6-1.4-5.8,0-6.4,2.9c-0.1,0.5-0.3,0.7-0.9,0.7C121.1,33.9,119.5,33.8,118,34z"/>
	<path class="st1" d="M127.3,61.1c-0.5-0.2-1-0.3-1.5-0.6c-1.4-0.8-2.1-2.4-1.6-3.7c0.1,0.1,0.1,0.2,0.2,0.3c0.7,1.3,1.9,2,3.4,2
		c1.6,0,2.7-0.9,3.5-2.3c0.3,0.1,0.2,0.3,0.2,0.5c0,1.7-1.2,3.4-3.1,3.6c0,0-0.1,0.1-0.1,0.1C127.8,61.1,127.5,61.1,127.3,61.1z"/>
	<path class="st1" d="M130.4,46.8c-0.2-1.4,0.1-2.6,1.1-3.7c1.2-1.2,2.5-2.4,3.7-3.7c1-1,1.8-2.1,2.2-3.6c0-0.2,0.2-0.3,0.3-0.4
		c0,0.1,0,0.2,0,0.2c-0.3,0.5-0.1,1-0.2,1.5c-0.3,1.5-1.1,2.7-2,3.8c-1.1,1.4-2.5,2.4-3.8,3.7C131.1,45.4,130.7,46,130.4,46.8z"/>
	<path class="st0" d="M131.1,56.9c-0.7,1.4-1.8,2.3-3.5,2.3c-1.5,0-2.6-0.7-3.4-2c-0.1-0.1-0.1-0.2-0.2-0.3c-0.5-2.1,0.2-3.6,2-4.5
		c1.4-0.7,2.8-0.4,4,0.6c1.2,1,1.5,2.2,1.1,3.7C131.2,56.7,131.2,56.8,131.1,56.9z"/>
	<path class="st1" d="M118,34c1.6-0.1,3.1-0.1,4.7,0c0.5,0,0.7-0.2,0.9-0.7c0.6-2.9,3.8-4.3,6.4-2.9c1.3,0.7,2.1,2.4,1.9,3.8
		c0,0.1-0.1,0.1-0.1,0.2c-0.4-0.9-1-1.7-1.9-2.2c-2.6-1.4-5.9,0-6.5,3.1c-0.1,0.4-0.2,0.4-0.5,0.4c-1.6,0-3.3,0-4.9,0
		c-0.5,0-0.5-0.2-0.4-0.5C117.8,34.8,117.6,34.3,118,34z"/>
	<path class="st1" d="M124.9,48.6c1.8,0,3.6,0,5.4,0c0,0.6,0.2,1.3-0.1,1.7c-0.3,0.4-1,0.1-1.6,0.1c-1.1,0-2.2,0-3.3,0
		c-0.4,0-0.5-0.1-0.5-0.5C124.9,49.5,124.9,49.1,124.9,48.6z"/>
</g>
<g>
	<g>
		<path class="st2" d="M190.8,53.3c1.1-0.4,1.9-1.2,2.9-1.8c0.2-0.1,0.3-0.3,0.5-0.4c0.4-0.3,0.7-0.4,1,0.2c0.4,0.9,0.9,1.7,1.2,2.6
			c0.2,0.5,0.5,0.8,0.9,1.1c1.4,1,2.7,2,4.2,2.8c1.6,0.9,2.5,2.3,3.2,3.8c1.3,2.9,2.1,5.8,1.9,9c-0.4,6.5-0.7,13.1-1.1,19.6
			c-0.2,4-0.4,7.9-0.7,11.9c-0.2,2.3,0.3,4.6,0.7,6.9c0.8,4.5,1.5,9,2.3,13.5c0.2,1.2,0.4,2.3,0.6,3.5c0.2,0.7-0.1,0.9-0.8,0.8
			c-1.8-0.1-3.6-0.1-5.4-0.1c-0.8,0-1.1,0.2-1.2,1c-0.8,5.1-1.7,10.2-2.5,15.3c-1,6.2-2,12.3-3.2,18.5c-0.2,1.3-0.3,2.6-0.3,3.9
			c0.1,11.9,0.2,23.7,0.3,35.6c0,0.5,0.2,1.1-0.1,1.6c-0.3,0.1-0.7,0.1-1,0.1c-2.9,0.5-5.8,0.6-8.6,0.8c-0.6,0-1.2,0.1-1.8-0.1
			c-0.2-0.1-0.3-0.3-0.3-0.6c0.3-1.5-0.1-3-0.2-4.5c-0.4-3.9-1-7.8-1.3-11.7c-0.2-1.9-0.5-3.9-0.7-5.8c-0.3-2.5-0.5-5-0.8-7.6
			c-0.3-2.6-0.6-5.3-1-7.9c-0.2-1.4,0.3-1.9,1.7-1.7c1.6,0.2,3.3,0.4,5,0.6c-0.7-0.6-1.5-0.9-2.2-1.2c-1.3-0.6-2.6-1.3-3.9-1.8
			c-1-0.4-1.3-1.3-1.2-2.2c0.3-3.6,0.6-7.3,0.9-10.9c0.2-2.4,0.4-4.9,0.6-7.3c0.3-3,0.8-6,1.3-9.1c0.2-1.3,0.3-2.6,0.5-4
			c0.1-0.7-0.1-1-0.9-1.1c-1.1-0.1-2.1,0-3.2,0c-0.5,0-1,0-1.5-0.3c-0.3-0.2-0.6-0.1-0.9-0.1c-1.3,0-2.5,0-3.8,0
			c-1.1,0-1.2-0.2-1.2-1.2c0.1-1.8,0.2-3.6,0.3-5.4c0-0.5,0.1-0.9,0.6-1.1c0.2-0.1,0.4-0.3,0.4-0.6c0-0.7,0.2-1.3,0.3-2
			c0.1-0.7-0.3-1.2-0.6-1.7c-0.3-0.4-0.3-0.8-0.3-1.2c0.1-0.3,0.1-0.7,0.1-1c0-0.6,0.2-1.2,0.4-1.8c0.4-0.9,0.5-1.9,0.3-2.9
			c-0.3-1.2-0.3-2.4-0.2-3.6c0.1-0.6,0.1-1.2,0.7-1.7c0.6-0.5,0.4-1.3,0.6-1.9c0.2-0.9,0.1-1.7-0.7-2.3c-0.2-0.2-0.2-0.4-0.2-0.6
			c0.1-0.6,0.1-1.2,0.2-1.8c0-0.2,0.1-0.3,0.1-0.5c0.2-0.3,0.1-0.7,0.4-1c0.4-0.6,0.6-1.3,0.9-2c0.6-1.5,0.7-3.1,1.3-4.6
			c0.2-0.5,0.4-1,1-1c0.2,0,0.4-0.2,0.5-0.4c0.2-0.4,0.6-0.5,1-0.3c-0.1-0.5-0.3-0.9-0.3-1.4c0-0.3-0.1-0.5-0.3-0.7
			c-0.4-0.3-0.5-0.8-0.5-1.2c0.7-2.4,1.5-4.7,2.2-7.1c0.7-2.4,1.4-4.8,2-7.2c0.1-0.3,0.1-0.6,0.3-0.9c0.4-0.7,0.6-1.4,0.6-2.2
			c0.7-1.7,1.6-3.4,2.1-5.2c0.7-0.8,0.9-1.8,1.2-2.8c0.2-0.3,0.5-0.6,0.8-0.8c1.3-0.9,2.7-1.8,4-2.7
			C190.3,53.3,190.5,53.1,190.8,53.3z"/>
		<path class="st3" d="M19.4,118.7c-0.3-0.5-0.1-0.9,0.3-1.3c0.2-0.2,0.4-0.4,0.6-0.6c0.8-0.6,1.1-1.3,0.5-2.2
			c-0.2-0.4-0.1-0.7,0.2-1c3.4-2.7,6.7-5.4,10-8.1c0.6-0.5,0.6-0.8,0.2-1.4c-1.3-1.8-2.6-3.7-3.8-5.5c-0.7-1-1.4-2.1-2.3-3
			c-0.4-0.4-0.5-0.9-0.1-1.5c0.3-0.5,0.5-1.1,0.8-1.6c0.2-0.5,0.5-0.6,1.1-0.6c2.2,0.3,4.4,0.6,6.5,1c0.4,0.1,0.8,0,1.1-0.3
			c2.3-1.8,4.6-3.6,6.8-5.4c2.6-2,5.1-4.2,7.8-6.1c1.3-1,2.9-1.6,4.4-2.4c3.1-1.6,6.1-3.2,9.2-4.7c1.8-0.9,2.8-1,4.7-1.8
			c2.2-0.7,4.7-0.4,6.4-0.1c1.3,0.3,2.8,0.3,4,1c0.9,0.6,1.9,1.2,2.8,1.8c0.8,0.4,1.5,0.9,2.3,1.2c0.4,0.2,0.5,0.4,0.5,0.8
			c0,0.5-0.1,1-0.3,1.5c-0.4,1.9-0.8,3.8-1.2,5.6c-0.2,1-0.4,2.1-0.6,3.2c-0.1,0.4,0.1,0.7,0.4,0.8c0.3,0.2,0.6,0.4,0.4,0.8
			c-0.1,0.1-0.1,0.2-0.2,0.3c0,0.8-0.4,1.4-1,1.9c0,1.1-0.1,2.3,0.1,3.4c0.1,0.9-0.1,1.7-0.1,2.6c0,0.4-0.3,0.5-0.6,0.7
			c-2.2,1.4-4.5,2.8-6.7,4.1c-2.6,1.6-5.2,3.3-7.8,4.9c-2.5,1.6-5.1,3.1-7.6,4.7c-1.2,0.7-2.1,1.8-3.3,2.5c-3.5,2-6.9,4.1-10.3,6.1
			c-0.4,0.2-0.8,0.4-1.2,0.6c-0.5,0.4-0.8,0.3-1-0.3c-0.6-0.1-0.7-0.7-1-1c-0.2-0.4-0.4-0.7-0.8-0.9c-0.2-0.3-0.3-0.7-0.5-1
			c-0.4-0.8-0.9-1.6-1.5-2.3c-0.3-0.4-0.6-0.6-1-0.8c-0.5-0.2-0.8,0.1-1.1,0.3c-2.5,2-5.1,3.9-7.6,6c-1.1,0.9-2.2,1.6-3.7,1.4
			c-0.2,0-0.4,0-0.6,0.1c-0.8,0.2-1.5,0.8-2.3,0.7c-0.8-0.7-1.4-1.6-1.9-2.5c-0.3-0.5-0.9-0.9-1-1.5
			C19.6,118.9,19.6,118.8,19.4,118.7L19.4,118.7z"/>
		<path class="st2" d="M175,86c-2.1,1.3-4.2,2.6-6.2,3.9c-1.5,1-3.3,1.7-4.9,2.5c-3,1.5-6,3-9.1,4.5c-3.3,1.6-6.5,3.2-9.8,4.9
			c-0.4,0.2-0.7,0.2-1-0.2c-1.1-1.5-2.6-2.6-3.6-4.2c-0.5-0.7-0.9-1.6-0.9-2.5c0-1.1,0.5-2,1.6-2.5c4-2,8-4.1,12-6.2
			c2.7-1.4,5.4-2.8,8.1-4.2c0.5-0.3,0.9-0.6,1.3-1c4.9-4.7,9.7-9.3,14.6-14c0.2-0.1,0.4-0.3,0.5-0.4c0.4,0.2,0.4,0.5,0.4,0.8
			c-0.1,1.6-0.4,3.1-0.5,4.7c-0.3,2.8-0.6,5.6-1,8.4c-0.1,0.8-0.3,1.5-0.6,2.3c-0.2,0.7-0.4,1.4-0.5,2.1
			C175.5,85.4,175.5,85.9,175,86z"/>
		<path class="st4" d="M41.3,146.4c0.1-3.9,0.2-7.8,0.3-11.7c0.1-4.4,0.2-8.9,0.3-13.3c0-0.4-0.1-0.7-0.3-1.1
			c-0.1-0.2-0.3-0.5-0.1-0.8c0.1-0.1,0.1-0.1,0.2-0.1c0.3,0.4,0.5,0.8,0.8,1.2c0,3.5-0.1,7-0.2,10.6"/>
		<path class="st2" d="M20.7,119.1c0,0.1-0.1,0.2-0.1,0.2c-1.2,0.3-2.3,0.5-3.5,0.7c-0.3,0.1-0.4-0.2-0.5-0.4c-1-1.9-2-3.8-3.1-5.7
			c-0.2-0.3-0.2-0.6,0-0.9c1.1-2.7,2.2-5.3,3.3-8c0.2-0.4,0.5-0.7,0.8-0.9c3-2.2,6-4.4,8.9-6.7c0.4-0.3,0.7-0.3,1,0.1
			c1.7,2.4,3.4,4.9,5,7.3c0.2,0.3,0.2,0.6-0.1,0.9c-3.3,2.6-6.5,5.2-9.8,7.9c-1,0.8-1,0.8-0.5,2c0.2,0.5,0.2,0.9-0.2,1.2
			c-0.4,0.4-0.8,0.8-1.2,1.2C20.2,118.4,20.2,118.7,20.7,119.1C20.7,119.1,20.7,119.1,20.7,119.1z"/>
		<path class="st5" d="M189.2,211.2"/>
		<path class="st5" d="M184.4,210.9c-4.6-0.2-9.1,0.7-13.7,0.5c-0.9,0-1.6-0.9-1.4-1.9c0.2-1.3,0.8-2.5,1.5-3.6
			c0.3-0.4,0.7-0.4,1.1-0.4c1.1-0.1,2.3-0.2,3.4-0.2c0.8,0,1.4-0.3,1.9-0.9c0,0,0.1,0,0.1,0c0.7-0.2,0.9-1,1.5-1.3
			c1.5-0.1,3,0,4.5-0.1c0.2,0,0.4,0.1,0.5,0.2c2.9-0.1,5.8-0.2,8.7-0.4c0.9-0.1,1.9-0.1,2.8-0.1c-0.6,0.4-1.3,0.1-2,0.2
			c-0.3,0-0.6-0.1-0.7,0.2c-0.1,0.3,0.2,0.4,0.3,0.6c0.4,0.7,0.8,1.3,1.3,2c0.3,0.3,0.4,0.8,0.6,1.2l0,0c0.2,0.4,0.4,0.9,0.6,1.3
			l0,0c-0.1,0.5,0.3,0.9,0.4,1.3c0.1,0.5,0,0.7-0.5,0.8"/>
		<path class="st6" d="M182.9,55.1c0-0.7,0-1.4-0.1-2.1c-0.1-0.9-0.4-1.1-1.3-1c-1.3,0.1-2.5,0.2-3.8,0.3c-1.3,0.1-1.5-0.1-1.6-1.4
			c-0.1-1.4-0.6-2.8-0.7-4.3c-0.1-0.6-0.4-0.9-1-0.8c-0.1,0-0.2,0-0.3,0c-1,0-1.1-0.2-0.9-1.2c0.5-2.7,1.3-5.3,0.5-8.1
			c-0.3-0.9-0.3-1.9-0.5-2.8c-0.1-0.5,0.3-0.3,0.5-0.4c0.3-0.1,0.6,0.1,0.8,0.2c0.7,0.3,1.5,0.6,2.3,0.8c1.4,0.4,2.9,0.4,4.3,0
			c0.4-0.1,0.9-0.3,1.2-0.7c0.4-0.1,0.7-0.3,1.1-0.5c0.3,0,0.6-0.2,0.9-0.2c0.7,0.3,0.5,1,0.7,1.5c0.4,1.2,0.4,2.4,0.7,3.6
			c0.2,0.8,0.2,1.6,0.4,2.4c0.1-0.3,0.1-0.7,0.1-1c-0.2-1.3-0.4-2.6-0.6-3.9c-0.2-1.1,0.1-1.6,1-1.9c1.1-0.3,2.1,0.1,2.4,1
			c0.5,1.5,0.8,3-0.1,4.4c-0.2,0.3-0.1,0.6,0,1c0.3,0.8,0.9,1.5,1.1,2.4c0,0.2,0.1,0.3-0.1,0.5c0,0.5,0,0.9,0.7,1
			c0.2,0,0.3,0.3,0.3,0.5c0.1,1.4,0.7,2.7,0.8,4.2c0,0.3,0.2,0.5,0.4,0.7c0,0.4-0.3,0.6-0.6,0.8c-1.7,1.2-3.4,2.3-5.2,3.4
			c-0.9,0.6-1.8,1.3-2.7,1.8C183.4,55.2,183.2,55.4,182.9,55.1z"/>
		<path class="st7" d="M81.7,89.4c0.6-0.6,1.8-0.8,2.5-0.2c0.3,0.2,0.3,0.5,0.2,0.8c-0.1,1.4-0.5,2.7-1.2,3.9
			c-0.4,0.6-0.5,1.2-0.5,2c0,16.5-0.1,33-0.1,49.4c0,0.5,0,0.9,0,1.4c0,0.2,0,0.4-0.2,0.4c-0.2,0.1-0.3-0.2-0.4-0.3
			c-0.8-1.6-1.5-3.2-2.3-4.8c-0.2-0.4-0.3-0.7-0.5-1.1c-0.5-0.8-0.6-1.7-0.5-2.7c0.3-4.7,0.5-9.4,0.8-14.2c0.4-6.5,0.8-13,1.1-19.5
			c0.2-3.7,0.6-7.4,0.5-11.1c0-0.8-0.1-1.6-0.1-2.4C80.9,90.4,81.5,90,81.7,89.4z"/>
		<path class="st8" d="M88.6,78.4c0.7,0.2,1.4,0.2,2,0.3c1.1,0.1,1.1,0.1,1,1.1c0.1,0.1,0.1,0.3,0.2,0.5c0.1,0.6,0.4,0.9,1.1,0.8
			c0.1,0,0.3-0.1,0.4-0.1c1.4,0.2,2.4-0.3,3.3-1.3c0.8-0.9,3-1,3.8-0.3c0.8,0.7,0.6,2.1-0.4,2.5c-1,0.5-2.1,0.5-3,1.2
			c-0.6,0.4-1.2,0.8-1.6,1.6c0.9,0,1.6-0.3,2.4-0.5c1.2-0.3,2.3-0.6,3.5-1c1-0.3,1.2-0.1,1.2,0.9c0,1.1,0.3,2.1,0.9,3
			c0,0.1,0.1,0.1,0.1,0.2c0,0.4,0.2,0.8,0.5,1.1c0.7,0.6,1.2,1.3,1.9,1.9c0.1,0.1,0.2,0.3,0.2,0.4c0.3,0.4,0.1,0.6-0.3,0.7
			c-1.1,0.3-2.2,0.7-3.3,1c-1.7,0.4-2.9,1.6-4.3,2.5c-0.5,0.3-0.9,0.7-1.4,1c-0.4,0.3-0.6,0.1-0.9-0.3c-0.6-1.1-0.9-1.2-2.1-0.8
			c-1.1,0.4-2.3,0.6-3.4,1c-0.5,0.2-0.9,0-1.1-0.5c-0.7-1.6-1.3-3.2-2-4.8c-0.2-0.4-0.1-0.9,0.1-1.3c0.1-0.3,0.3-0.7,0-0.9
			c-0.3-0.3-0.6,0.1-0.9,0.2c-0.1,0.1-0.2,0.2-0.4,0.2c-0.6,0.1-0.7-0.3-0.6-0.7c0.2-1.2,0.1-2.4,0.4-3.6c0.4-1.6,0.5-3.3,0.7-5
			C87,78.4,87.1,78.2,88.6,78.4z"/>
		<path class="st9" d="M189.8,42.5c-0.5-1-0.7-1.6-1.2-2.6c-0.2-0.4-0.2-0.6,0.1-0.9c1.2-1.2,0.7-3.3,0-4.4c-0.4-0.8-2-0.8-2.6-0.1
			c-0.2,0.3-0.1,0.6-0.1,0.9c0.2,1.3,0.4,2.7,0.6,4c0.1,0.8,0.2,1.6-0.2,2.4c-0.1,0-0.1,0-0.2,0c-0.4-2.4-0.8-4.8-1.2-7.2
			c-0.2-0.4,0-0.8-0.2-1.1c-0.1-0.2-0.2-0.3-0.4-0.2c-0.2,0.1-0.5,0.3-0.7,0.3c0-0.5,0.3-1,0.8-1c0.5,0,0.8,0.2,0.9,0.8
			c0.2,1.9,0.5,3.9,0.7,5.4c-0.4-1.8-0.5-4-0.9-6.1c-0.2-1-0.3-1-1.3-0.6c-1.5,0.6-3,1.1-4.6,1c-1.3-0.1-2.4-0.5-3-1.8
			c-0.4-1-0.5-0.9-1.5-0.8c-1.2,0.2-2.3,0.6-3.6,0.1c-0.4-0.2-0.7-0.3-0.7-0.8c0-0.4,0.3-0.7,0.7-0.7c3.3-0.5,6.3-2.3,9.6-3
			c1.7-0.4,3.5-0.6,5.2-0.4c2.4,0.3,3.7,1.6,4.4,4.1c0.7,2.8,0.9,5.6,0.8,8.5c-0.1,1.1-0.2,2.3-0.4,3.4c0,0.2-0.2,0.6,0.1,0.7
			c0.3,0.1,0.4-0.2,0.6-0.4c0.4-0.4,0.7-0.9,1-1.4c0.2-0.3,0.3-0.7,0.8-0.5c-0.4,1.4-2.5,3.5-3.6,4.4
			C189.1,45.1,190.1,42.7,189.8,42.5z"/>
		<path class="st10" d="M19.6,119.1c0.4,0.1,0.6,0.5,0.8,0.8c0.8,1,1.5,2,2.2,3.1c0.3,1-0.3,1.9-0.4,2.9c-0.1,0.8-0.4,1.6-0.6,2.3
			c-0.2,0.4-0.2,1.1-1,0.9c-0.7,0-0.8-0.5-0.9-1.1c-0.2-1-0.4-1.1-1.1-0.4c-1.2,1.1-2.5,1.9-3.9,2.7c-0.7,0.4-1.4,0.4-2.1-0.2
			c-1.3-1.1-1.9-2.6-2.6-4c-0.2-0.3-0.3-0.7-0.4-1c-0.5-1.4-0.4-1.5,0.8-2.4c1.9-1.4,3.9-2.4,6.2-2.9
			C17.6,119.5,18.6,119.4,19.6,119.1z"/>
		<path class="st11" d="M193.4,40.2c-0.7,0.9-1.1,2-2,2.7c-0.2,0.2-0.4,0.6-0.7,0.4c-0.3-0.2-0.2-0.6-0.2-0.9
			c0.4-2.2,0.6-4.5,0.5-6.8c-0.1-2-0.3-4-0.9-5.9c-0.7-2.4-2.3-3.5-4.8-3.6c-2.7-0.1-5.3,0.6-7.9,1.5c-2,0.7-3.8,1.6-5.9,1.9
			c-0.3,0-0.6,0.1-0.6,0.4c0,0.4,0.3,0.4,0.6,0.5c1.2,0.5,2.4,0.1,3.5-0.2c1.1-0.2,1.2-0.3,1.6,0.8c0.6,1.6,2.1,2,3.6,1.8
			c1.5-0.2,3-0.6,4.3-1.4c0.5-0.3,0.7-0.2,0.9,0.3c0.3,0.8,0.4,1.7,0.4,2.4c0,1.2,0.2,2.3,0.4,3.5c0.1,0.9,0.1,1.7,0.3,2.6
			c0,0.1,0,0.3-0.2,0.5c-0.2-1.1-0.3-2.1-0.5-3c-0.2-1.4-0.4-2.8-0.6-4.2c-0.1-0.5-0.4-0.6-0.7-0.4c-0.3,0.2-0.6,0.3-0.7,0.6
			c-0.3,0.2-0.6,0.5-1,0.4c-3.1,1.3-6,0.9-8.8-0.9c-0.3-0.2-0.5-0.2-0.8-0.2c-0.9,0-1.8-0.1-2.7-0.4l0,0c-1.4-0.7-2.2-1.7-2.1-3.3
			c0-0.5,0.2-0.6,0.6-0.7c2-0.1,3.9-0.4,5.8-0.9c0.9-0.3,1.8-0.6,2.7-1c0.2-0.3,0.6-0.1,0.9-0.3c2.5-0.8,5-1.6,7.6-1.5
			c1.2,0,2.4,0.2,3.5,0.9l0,0c0.6,0.3,1,0.8,1.3,1.3c0.1,0.2,0.2,0.4,0.3,0.6c0.2,0.5,0.2,1,0.6,1.4c0.4,0.5,0.6,1,0.9,1.6
			c0.3,0.7,0.6,1.4,0.9,2.1c0.8,2.3,1,4.6,0.2,7C193.5,40,193.4,40.1,193.4,40.2z"/>
		<path class="st12" d="M110.7,94.4c-0.1,0-0.1,0-0.2,0c-0.6,0-1.2-0.2-1.8-0.5l0,0c-0.4-0.4-0.8-0.8-1.2-1.2
			c-0.1-0.1-0.2-0.3-0.3-0.4c-0.3-0.5-0.3-1.1-0.9-1.4l0,0c-1.3-0.8-2.4-1.9-3.3-3.3l0,0c-0.5-1.1-0.9-2.3-0.7-3.6
			c0.1-0.6-0.1-0.8-0.8-0.6c-1.7,0.5-3.4,0.9-5.1,1.4c-0.3,0.1-0.7,0.2-1,0.2c-0.2,0-0.3,0-0.4-0.2c-0.1-0.2,0-0.3,0.1-0.4
			c0.9-0.9,1.8-1.9,3.2-2.2c0.6-0.1,1.3-0.4,1.9-0.6c0.1,0,0.2-0.1,0.3-0.1c0.5-0.8,1.5-0.8,2.2-1.1c0.8-0.3,1.4,0.1,1.4,1
			c0,1.3,0,2.5,0.4,3.8c0.5,1.4,1.1,2,2.6,2c1.3,0,1.3,0.1,1.6,1.3c0.2,0.7,0.4,1.3,0.6,2c0.1,0.3,0.2,0.5,0.6,0.7
			c-0.6-1.7-0.4-3.3-0.7-5c-0.3-1.7-0.5-3.4-1-5.1c-0.4-1.4-1.1-2.8-2.2-3.8c-1-0.9-2.1-1.1-3.3-0.8c-1.6,0.3-3.2,0.9-4.7,1.5
			c-1.8,0.7-3.4,1.6-4.9,2.8c-0.4,0.3-0.9,0.4-1.4,0.5c-0.4,0-0.6-0.2-0.4-0.5c0.1-0.3-0.1-0.7,0-1c0.6-1.7,2-3,3.7-3.8
			c2.4-1.3,5-1.5,7.7-1.2c0.3,0,0.5,0.1,0.8,0c1.9-0.5,3.5,0.6,4.5,2.2l0,0c0.3,0.6,0.7,1.1,0.9,1.6l0,0c0.8,2.6,1.3,5.2,1.4,7.9
			c0,1.3,0.3,2.5,0.7,3.7c0.3,1,0.6,2,1,2.9l0,0c0.2,0.5,0,0.8-0.5,0.9C111.3,94.2,111,94.3,110.7,94.4z"/>
		<path class="st10" d="M142.1,102C142.1,102,142.1,102,142.1,102c-1-0.6-1.2,0.2-1.6,0.7c-1.6,2.3-3.5,4.3-6.1,5.5
			c-0.7,0.3-1.1,0.2-1.6-0.3c-1.3-1.3-2.6-2.6-3.4-4.2c-0.5-1-0.4-1.6,0.5-2.3c1.2-1,2.5-1.8,3.9-2.5c0.6-0.3,0.7-0.5,0.1-1
			c-0.1,0-0.1-0.1-0.2-0.1c-0.4-0.3-0.8-0.6-0.6-1.1c0.2-0.5,0.7-0.5,1.2-0.4c1,0.1,2,0.2,3,0.5c0.6,0.2,0.7-0.1,0.5-0.5
			c0.4-0.1,0.4-0.1,0.7,0.2c1.1,1.7,2.3,3.4,3.5,5.1C142,101.6,142.1,101.8,142.1,102z"/>
		<path class="st13" d="M91.7,79.9c0,0.2,0,0.4-0.1,0.6c0,0.2-0.3,0.5,0,0.7c0.3,0.2,0.7,0.1,0.9-0.1c1.4-1.3,3.1-2.2,4.8-2.9
			c1.6-0.7,3.2-1.4,4.9-1.7c0.6-0.1,1.3-0.3,2-0.3c1.9,0.2,2.9,1.5,3.7,3c1.1,2,1.3,4.2,1.7,6.5c0.3,2,0.1,4,0.8,6
			c0.1,0.2,0.2,0.5-0.1,0.6c-0.2,0.1-0.4-0.1-0.6-0.3c-0.9-1-1.1-2.3-1.4-3.5c-0.1-0.4-0.2-0.7-0.7-0.7c-1,0-1.9,0.1-2.7-0.7
			c-0.9-1.1-1.1-2.4-1.3-3.7c0-0.5,0-1.1,0-1.6c0-0.8-0.3-1-1.1-0.7c-1.6,0.5-3.1,1.3-4.7,1.7c-1,0.3-1.8,1-2.5,1.8
			c-0.1,0.1-0.4,0.3-0.3,0.5c0.1,0.2,0.4,0.1,0.6,0.1c1.2-0.3,2.5-0.7,3.7-1.1c0.7-0.2,1.4-0.4,2.1-0.6c0.4-0.1,0.8,0,0.7,0.5
			c-0.2,1.4,0.3,2.6,0.6,3.9c-0.7-1-0.9-2.1-0.9-3.3c0-1,0-1-1-0.8c-1.9,0.6-3.9,1.1-5.8,1.6c-0.2,0.1-0.5,0.3-0.7,0
			c-0.2-0.3,0.1-0.5,0.3-0.7c1-1.3,2.3-2.2,3.9-2.5c0.3-0.1,0.5-0.2,0.8-0.2c0.7-0.1,1-0.5,0.9-1.2c-0.1-0.8-0.6-1.3-1.3-1.3
			c-1.4,0.1-2.8,0.2-3.4,1.8c-0.1,0.3-0.4,0.4-0.7,0.4c-1.1,0-2.3,0-3.4,0c-0.5,0-0.6-0.2-0.5-0.6c0.1-0.3,0.2-0.6,0.3-0.9
			C91.6,79.9,91.7,79.9,91.7,79.9z"/>
		<path class="st14" d="M175.6,82.8c0.5-1.3,0.7-2.8,0.8-4.2c0.4-3.3,0.8-6.5,1.1-9.8c0.1-0.7,0.2-1.4,0.1-2.1c0.4-1,0.4-2,0.5-3
			c0.1-1.2,0.4-2.4,0.7-3.6c0.7-1.3,1.3-2.7,2.6-3.5c0.9-0.5,1.2-0.5,1.9,0.2c0.4,0.4,0.8,0.9,1.1,1.4c0.2,0.3,0.2,0.6-0.1,0.9
			c-0.4,0.4-0.8,0.8-1.2,1.2c-0.9,0.7-1.6,1.5-1.5,2.8c0.1,1.4,0.1,2.8,0,4.2c-0.8,3.3-1.8,6.5-2.7,9.7c-0.5,1.9-1.2,3.6-1.7,5.5
			c0,0.9-0.7,1.7-0.6,2.6c0,0.1,0,0.2,0,0.2c-0.2,0.5-0.6,1-0.8,1.5c-0.1,0.2-0.2,0.3-0.4,0.2c-0.3-0.4-0.2-0.8-0.1-1.3
			c0.1-0.7,0.3-1.4,0.4-2.2C175.8,83.3,175.8,83,175.6,82.8z"/>
		<path class="st15" d="M88.6,78.4c-1.2,0-1.3,0.2-1.5,1.4c-0.2,1.6-0.3,3.3-0.7,4.9c-0.3,1.3-0.1,2.6-0.5,3.9
			c-0.1,0.2,0,0.4,0.3,0.6c-0.5,0.4-1,0.6-1.7,0.2c-0.6-0.3-1.5-0.7-2.3-0.1c-0.1-0.4-0.5-0.5-0.8-0.6c-0.5-0.1-0.6-0.4-0.5-0.9
			c0.5-2.1,0.9-4.3,1.4-6.5c0.2-1.1,0.5-2.3,0.7-3.4c0.2-1.1,0.1-1.3-0.8-1.7c-0.6-0.3-1.1-0.6-1.6-1c0.8,0.1,1.4,0.6,2,1
			c1.1,0.6,2.4,0.8,3.6,1.2c0.5,0.1,0.9,0.2,1.2,0.7C87.7,78.3,88.3,78.2,88.6,78.4z"/>
		<path class="st16" d="M183,55.3c1-0.4,1.8-1.1,2.7-1.7c2.2-1.4,4.4-2.9,6.6-4.3c0.6,0.4,0.8,1.1,1.2,1.7c0.2,0.4-0.3,0.6-0.5,0.7
			c-0.7,0.5-1.5,0.9-2.1,1.6c-1.4,1-2.9,2-4.3,2.9c-0.3,0.2-0.7,0.4-0.9,0.8c-0.2,0.5-0.4,1-0.6,1.5c-0.1,0.2-0.3,0.4-0.4,0.2
			c-0.4-1-1.4-1.7-1.9-2.6C182.3,55.6,182.7,55.5,183,55.3z"/>
		<path class="st17" d="M142.1,102c-0.8-0.4-1.1-1.2-1.6-1.9c-0.9-1.3-1.7-2.6-2.5-3.9c0-0.1-0.1-0.1-0.2-0.1
			c-0.5-0.4-0.3-0.7,0.1-1c0.2-0.1,0.4-0.2,0.5-0.3c0.5-0.3,0.7-0.4,0.9,0.4c0.1,1,0.6,2,1.2,2.8c0.7,0.9,1.4,1.7,2.3,2.5
			c0.8,0.7,0.7,0.9-0.2,1.3C142.4,101.9,142.3,101.9,142.1,102z"/>
		<path class="st2" d="M175.6,87c0.3-0.6,0.4-1.3,0.9-1.9c0.5,0.4,0.4-0.3,0.6-0.3c-0.2,0.2-0.2,0.5-0.6,0.3c0.1-1,0.5-1.8,0.9-2.7
			c0,0.4,0.1,0.8,0.4,1.1c0.6,0.8,0.5,1.7,0.7,2.6c0,0.2-0.1,0.4-0.2,0.4c-0.2,0-0.3-0.2-0.3-0.3c0-0.2,0-0.4-0.3-0.4
			c-0.3,0-0.3,0.2-0.3,0.4c-0.1,0.3-0.2,0.4-0.5,0.4c-0.7-0.1-0.9,0.4-1.1,0.9c-0.3,0.9-0.8,1.8-0.8,2.7c0,0.8-0.6,1.1-0.7,1.7
			c-0.2,0.6-0.4,1.3-0.6,1.9c-0.1,0.2-0.2,0.2-0.3,0.2c0.2-0.9,0.7-1.6,1-2.5c0.1-0.3,0.2-0.5,0.2-0.8c0,0,0,0,0-0.1
			c0-1.3,0.5-2.4,1-3.6C175.4,87,175.5,87,175.6,87z"/>
		<path class="st18" d="M182.7,56.1c0.8,0.7,1.5,1.6,2.1,2.5c0.5-0.4,0.4-1.1,0.9-1.5c-0.3,1-0.7,1.9-1.1,2.8c-0.1,0-0.1,0-0.2,0
			c-0.2-0.1-0.3,0.1-0.4,0.2c-0.3,0.3-0.5,0.6-0.8,0.8c-0.9,0.5-1,1.2-0.9,2.1c0,0.6,0,1.3-0.1,1.9c0,0.1-0.1,0.2,0,0.2
			c0.1,0,0.1-0.1,0.2-0.1c0.1,0,0.1,0,0.2,0.1c-0.1,0.8-0.2,1.5-0.7,2.2c-0.2-0.2-0.2-0.5-0.2-0.8c0-1.5,0-3,0-4.5
			c0-0.6,0.2-0.9,0.7-1.2c0.7-0.5,1.3-1.1,1.9-1.7c0.3-0.3,0.3-0.6,0.1-0.9c-0.4-0.5-0.9-1-1.3-1.5c-0.2-0.3-0.5-0.3-0.8-0.2
			c-1.1,0.4-1.8,1.2-2.3,2.1c-0.3,0.5-0.5,1.1-0.9,1.5C179.4,58.3,180.9,56.2,182.7,56.1z"/>
		<path class="st19" d="M175,86c0.2-1.1,0.5-2.1,0.6-3.2c0.5,0.1,0.3,0.5,0.3,0.8c0,1.1-0.4,2.3-0.3,3.4c-0.2,1.3-0.8,2.5-1.2,3.7
			c-0.3,0.2-0.3,0.5-0.6,0.7"/>
		<path class="st13" d="M108.2,77.1c-0.8-0.8-1.4-1.7-2.5-2c-0.4-0.1-0.8-0.2-1.2-0.2c-2,0.2-4.1-0.2-6.1,0.1
			c-0.7,0.1-1.4,0.3-2,0.6c-0.4,0.2-0.8,0.4-1.2,0.4c0.8-0.7,1.7-0.9,2.7-1.1c1.6-0.4,3.3-0.5,5-0.2c0.5,0.1,0.9,0,1.4-0.1
			C105.8,74.5,107.7,75.6,108.2,77.1z"/>
		<path class="st9" d="M170.4,32.6c1,0.1,2,0.4,3,0.3c0.2,0,0.4,0.1,0.5,0.2c2.4,1.5,5,1.9,7.8,1.2c0.3-0.1,0.6-0.1,0.9-0.2
			c-0.3,0.4-0.8,0.5-1.2,0.6c-1.5,0.3-3,0.4-4.5,0c-1.1-0.2-2.1-0.7-3.1-1.2c-0.2-0.4-0.6-0.3-0.9-0.3
			C172.1,33.1,171.2,33.1,170.4,32.6z"/>
		<path class="st13" d="M112.1,93.2c-0.8-1.3-1.2-2.8-1.5-4.3c-0.5-2.3-0.3-4.7-0.9-7.1c-0.3-1-0.5-2.1-0.7-3.1
			c0.7,1.4,0.9,2.9,1.2,4.4c0.2,1.3,0.3,2.6,0.4,3.9c0.1,1.9,0.7,3.7,1.3,5.4C112,92.7,112.1,93,112.1,93.2z"/>
		<path class="st9" d="M177.4,26.7c-0.8,0.6-1.7,0.9-2.6,1.1c-1.8,0.5-3.7,0.9-5.6,0.9c-0.6,0-0.8,0.3-0.8,0.8
			c0,1.1,0.5,1.9,1.4,2.5c0.2,0.2,0.5,0.4,0.7,0.5c-1.6-0.4-2.4-2.1-2.2-3.5c0-0.5,0.4-0.5,0.7-0.5c2-0.2,3.9-0.4,5.8-1
			C175.6,27.4,176.5,27,177.4,26.7z"/>
		<path class="st9" d="M189.4,25.8c-3.1-1.5-6.2-0.7-9.4,0.1c-0.6,0.2-1.2,0.3-1.8,0.4c1.5-0.7,3.1-1.1,4.7-1.4
			c1.7-0.3,3.5-0.4,5.2,0.1C188.6,25.2,189.1,25.3,189.4,25.8z"/>
		<path class="st13" d="M103.1,87.6c0.6,0.3,0.7,1,1.2,1.4c0.7,0.6,1.4,1.3,2.1,1.9c-0.1,0-0.2,0-0.3,0c-1.1-0.8-2.1-1.7-2.8-2.8
			C103.2,87.9,103.1,87.8,103.1,87.6z"/>
		<path class="st9" d="M193.4,32.9c-0.5-0.6-0.8-1.3-0.9-2.1C193,31.4,193.2,32.1,193.4,32.9z"/>
		<path class="st13" d="M110.7,94.4c0.2-0.3,0.5-0.3,0.8-0.3c0.5-0.1,0.7-0.3,0.7-0.8c0.3,0.5,0.1,0.8-0.4,0.9
			C111.4,94.3,111.1,94.5,110.7,94.4z"/>
		<path class="st9" d="M190.7,27.1c-0.4-0.4-0.9-0.9-1.3-1.3C190,26,190.5,26.5,190.7,27.1z"/>
		<path class="st13" d="M109,78.7c-0.4-0.5-0.8-1-0.9-1.6C108.6,77.6,108.9,78.1,109,78.7z"/>
		<path class="st13" d="M108.7,93.8c0.6,0.2,1.2,0.4,1.8,0.5C109.8,94.5,109.2,94.3,108.7,93.8z"/>
		<path class="st9" d="M191.6,29.2c-0.5-0.3-0.5-0.9-0.6-1.4C191.3,28.2,191.4,28.7,191.6,29.2z"/>
		<path class="st13" d="M107.5,92.7c0.5,0.3,0.9,0.7,1.2,1.2C108.2,93.6,107.8,93.2,107.5,92.7z"/>
		<path class="st13" d="M106.4,90.9c0.7,0.2,0.8,0.8,0.9,1.4C106.9,91.8,106.7,91.3,106.4,90.9z"/>
		<path class="st20" d="M178.7,203.4c-0.5,0-1.1,0-1.6,0.1c-0.9,0.1-1.1,0-1.1-1c0-4.3-0.1-8.7-0.1-13c-0.1-7.5,0-15-0.2-22.5
			c-0.1-5.9,0.2-11.8,0.3-17.7c0-4,0.1-7.9,0.3-11.9c0.1-3.2,0.4-6.3,0.6-9.5c0-0.2,0-0.4,0.1-0.6c0.1-0.9,0-1-0.9-1
			c-1.4,0-2.9-0.1-4.3-0.1c-0.6,0-0.8-0.2-0.8-0.8c0.1-2,0.3-4,0.4-6c0-0.3,0.1-0.6,0.4-0.7c0.6-0.1,0.7-0.6,0.7-1.1
			c0-0.8,0-1.6,0-2.4c0-0.3,0-0.6-0.3-0.7c-0.6-0.2-0.6-0.7-0.5-1.2c0-0.5,0.1-0.9,0.1-1.4c0-0.6-0.1-1.2,0.6-1.6
			c0.3-0.2,0.3-0.6,0.3-1c0-0.7,0-1.4,0-2.1c0-0.1,0-0.3-0.1-0.4c-1-1.3-0.1-2.7-0.2-4c0-0.3,0.2-0.4,0.4-0.4c0.5-0.1,0.7-0.5,0.7-1
			c0-0.7,0-1.4,0-2.1c0-0.6,0-1.1-0.7-1.3c-0.1,0-0.2-0.2-0.2-0.3c0-0.8-0.1-1.5,0.3-2.2c0,0.4,0,0.8-0.1,1.2
			c-0.1,0.5-0.1,1,0.5,1.3c0.4,0.2,0.5,0.6,0.5,1.1c0,0.9-0.1,1.8-0.2,2.7c0,0.4-0.2,0.6-0.5,0.7c-0.5,0.1-0.7,0.5-0.7,1
			c0,0.7-0.1,1.3-0.2,2c0,0.1,0,0.3,0.1,0.4c1,1.3,0.4,2.7,0.4,4c0,0.2-0.1,0.5-0.2,0.6c-1.1,0.9-0.4,2.1-0.7,3.2
			c0,0.1,0.1,0.3,0.2,0.3c1,0.6,0.8,1.6,0.8,2.5c0,0.4-0.1,0.9-0.1,1.3c0,0.6-0.2,1-0.7,1.1c-0.3,0.1-0.4,0.3-0.4,0.6
			c0,0.9-0.2,1.7-0.2,2.6c0,1-0.1,2-0.1,3c0,0.6,0.2,0.9,0.8,0.9c3.1-0.2,6.1,0.4,9.2,0.3c1.9-0.1,1.6,0.1,1.4,1.8
			c-0.4,3.2-0.9,6.5-1.4,9.7c-0.5,3.4-0.7,6.8-0.9,10.3c-0.2,2.5-0.5,5-0.7,7.6c-0.1,1.4-0.3,2.7-0.2,4.1c0,0.5,0.3,0.8,0.7,1
			c1.4,0.6,2.8,1.3,4.1,2c1,0.5,1.9,1,2.8,1.4c0.2,0.1,0.4,0.2,0.3,0.4c0,0.3-0.3,0.2-0.5,0.2c-1.5-0.2-3-0.3-4.5-0.5
			c-0.6-0.1-1.2-0.2-1.8-0.2c-0.7,0-1,0.3-0.9,0.9c0.4,3,0.8,5.9,1.1,8.9c0.3,2.4,0.5,4.8,0.8,7.3c0.4,2.6,0.6,5.1,0.9,7.7
			c0.3,2.9,0.6,5.8,1,8.6c0.2,1.4,0.3,2.8,0.5,4.2c0.1,0.6-0.2,1.1-0.2,1.6C182.2,203.5,180.4,203.3,178.7,203.4z"/>
		<path class="st21" d="M178.4,104.4c3.5,0,7.1,0.4,10.6,0.4c0.6,0,0.9,0.3,1,0.8c0,0.2,0.1,0.4,0.1,0.6c0.2,1.1,0,1.2-1,1.1
			c-2.6-0.2-5.2-0.3-7.8-0.5c-1.2-0.1-2.4-0.2-3.6-0.3c-0.1,0-0.3-0.1-0.4-0.2c-0.2-0.5,0-1.1,0.1-1.6
			C177.6,104.4,178,104.3,178.4,104.4z"/>
		<path class="st18" d="M184.5,59.9c-0.6,1.8-1.5,3.4-2.1,5.2c0,0-0.1,0-0.1-0.1c-0.3-0.3-0.3-0.6-0.1-0.9c0.5-1.3,1-2.5,1.6-3.8
			C184,60,184.1,59.8,184.5,59.9C184.5,59.8,184.5,59.8,184.5,59.9z"/>
		<path class="st2" d="M27.1,202c-1.6,0-3.3-0.1-4.9,0c-0.6,0-0.8-0.2-0.8-0.8c0.3-5.7,0.6-11.4,0.8-17c0.2-3.5,0.3-7,0.5-10.5
			c0.2-4.5,0.5-9,0.7-13.4c0.1-2.2-0.2-4.4-0.4-6.6c-0.2-3.4-0.5-6.7-0.7-10.1c-0.3-4-0.5-8-0.8-12c0-0.6-0.2-1.1-0.5-1.5
			c-0.2-0.4-0.3-0.7,0.1-0.9c0.3-0.2,0.3-0.5,0.3-0.9c0.2-1.2,0.6-2.4,0.7-3.6c0-0.2,0.1-0.5,0.1-0.7c0-0.4,0.2-0.8,0.5-0.8
			c0.8-0.2,1.3-0.8,1.9-1.1c0.2,0,0.5-0.1,0.7,0c1.3,0.3,2.3-0.3,3.3-1.1c2.7-2.2,5.5-4.3,8.2-6.4c0.3-0.3,0.7-0.7,1.1-0.1
			c0.6,0.9,1.4,1.7,1.8,2.8c0,0,0,0.1,0.1,0.1c0.7,1,0.7,1.5-0.2,2.3c-1.2,1-2.3,2.2-3.4,3.4c-1.3,1.4-2.7,2.8-4,4.1
			c-0.1,0.1-0.2,0.2-0.3,0.3c-0.3,0.4-0.2,0.6,0.3,0.7c0.7,0.1,1.4,0.2,2.1,0.2c1.5,0,3,0,4.4,0c0.5,0,1,0.1,1.5,0.2
			c0.7,0.2,0.9,0.6,0.6,1.3c-0.3,0.6-0.7,1.1-1,1.6c-2,3-4,6-6,8.9c-0.4,0.5-0.5,1.1-0.5,1.7c0.1,2.6-0.1,5.1-0.2,7.7
			c-0.1,2.6-0.1,5.1-0.3,7.7c-0.1,0.9,0.4,1.4,1.2,1.8c1.4,0.6,2.7,1.2,4,1.9c0.4,0.2,0.9,0.3,0.8,0.9c-0.1,0.6-0.6,0.7-1,0.9
			c-1.5,0.4-3,0.9-4.5,1.3c-0.6,0.2-0.9,0.4-0.8,1.1c0,1.7,0.3,3.5,0.4,5.2c0.1,2.4,0.4,4.8,0.6,7.1c0.2,2.9,0.4,5.7,0.7,8.6
			c0.2,1.7,0.2,3.5,0.3,5.2c0.2,2.9,0.4,5.7,0.7,8.6c0.1,0.9,0.3,1.8-0.5,2.6c-0.9,0.2-1.9,0.1-2.8,0.1c-1.2,0-2.4,0-3.6,0
			C27.8,202.4,27.4,202.4,27.1,202z"/>
		<path class="st22" d="M34.7,202c0.4-1.3,0-2.6-0.1-3.9c-0.1-1.5-0.3-3-0.4-4.5c-0.2-3.1-0.4-6.3-0.7-9.4c-0.2-1.5-0.2-3-0.3-4.6
			c-0.2-2.4-0.3-4.8-0.5-7.1c-0.2-1.6-0.2-3.2-0.3-4.8c-0.1-1.1-0.1-2.3-0.2-3.5c0-0.5,0.1-0.6,0.5-0.7c1.8-0.3,3.5-1,5.3-1.4
			c0.3-0.1,0.6-0.2,0.7-0.5c0-0.3-0.4-0.4-0.6-0.5c-1.5-0.8-3.1-1.5-4.7-2.2c-0.6-0.3-0.9-0.7-0.9-1.4c0.1-4,0.2-8,0.3-12
			c0.1-1.4,0.1-2.8,0.1-4.1c0-0.5,0.1-1,0.4-1.5c2.2-3.2,4.4-6.4,6.5-9.7c0.1-0.2,0.2-0.3,0.3-0.5c1-1.4,0.5-1.3-0.7-1.4
			c-1.2-0.1-2.4-0.1-3.6,0c-1.4,0-2.8-0.1-4.2-0.2c-0.2,0-0.5,0-0.6-0.3c-0.1-0.3,0.1-0.4,0.2-0.6c0.4-0.4,0.8-0.8,1.3-1.3
			c2-1.9,3.9-3.9,5.7-6c0.5-0.5,1.1-0.9,1.6-1.5c0.3-0.4,0.5-0.8,0-1.3c-0.2-0.1-0.2-0.3-0.2-0.5c0.3,0.2,0.5,0.5,0.7,0.8
			c0.2,0.3,0.4,0.6,0.6,0.9c0.3,0.3,0.6,0.6,0.6,1c0.7,0.9,0.7,2,0.6,3.1c-0.2,7.5-0.3,15-0.5,22.4c-0.2,7.5-0.3,14.9-0.2,22.4
			c0.1,5.4,0.1,10.8,0.2,16.2c0.1,5.7,0.2,11.5,0.2,17.2c0,1.4,0,1.4-1.4,1.3c-0.4,0-0.8-0.2-1.2,0.1c-0.1,0.1-0.2,0.2-0.3,0.1
			c-1.2-0.1-2.3,0-3.5-0.1C35.2,202.4,34.8,202.4,34.7,202z"/>
		<path class="st23" d="M40.4,117.7c-0.2-0.3-0.5-0.5-0.7-0.8c-0.5-0.9-1.3-1.6-1.7-2.6C39.1,115.2,39.8,116.4,40.4,117.7z"/>
		<path class="st23" d="M41.6,119.5c-0.3-0.3-0.5-0.6-0.6-1c0.5,0.2,0.6,0.6,0.8,1C41.8,119.5,41.7,119.5,41.6,119.5L41.6,119.5z"/>
		<path class="st5" d="M34.7,202c1.1,0,2.3,0,3.4,0c0.4,0,0.8,0.1,1.2,0.3c1.8,0.9,3.6,2.1,5.7,2.1c1.2,0,2.3,0.2,3.5,0.3
			c0.1,0,0.3,0,0.3,0.1c1,1.1,2.3,2.1,2.3,3.8c0,1.3-0.3,1.6-1.7,1.6c-5.5-0.1-10.9-0.2-16.4-0.4c-2.3-0.1-4.5-0.1-6.8-0.1
			c-1,0-1-0.1-0.9-1c0.1-0.6,0.2-1.3,0.3-1.9c0.5-1.6,1-3.2,1.5-4.7C29.7,202,32.2,202,34.7,202z"/>
		<path class="st24" d="M176.6,39.4c-0.9,0.1-1.2-0.9-1.3-1.8c-0.1-0.5-0.2-1.1-0.3-1.6c-0.2-0.7,0-0.9,0.8-0.7
			c1.4,0.4,2.7,0.7,4.1,0.6c0.5,0,1.1-0.1,1.6-0.2c0.8-0.2,1.1,0.1,1,0.9c-0.1,1.6,0,3.3-0.1,4.9c-0.1,2.9,0.3,5.8,0.3,8.7
			c0,0.6-0.2,0.7-0.7,0.8c-1.1,0.1-2.1,0.2-2.8,0.3c-1.6,0-1.7-0.2-1.9-1.4c-0.2-1.4-0.5-2.8-0.7-4.2c-0.3-1.8-0.7-3.5-0.8-5.3
			C175.8,39.8,176,39.4,176.6,39.4"/>
		<path class="st25" d="M189.1,36.8c0,1.2-0.8,2.3-1.7,2.6c-0.3,0.1-0.4-0.1-0.5-0.3c-0.2-1.3-0.4-2.6-0.6-3.9
			c-0.1-0.4,0.1-0.6,0.5-0.7c0.5-0.2,1-0.4,1.5,0C189,35.2,188.8,36.2,189.1,36.8z"/>
		<path class="st24" d="M90.9,94.7c-0.5,0-0.8-0.1-1-0.6c-0.4-1-0.8-2-1.2-2.9c-0.2-0.4-0.1-0.7,0.4-0.9c0.9-0.3,1.8-0.6,2.6-1
			c2.6-1.2,5.1-2.4,7.6-3.5c0.4-0.2,0.8-0.3,1.2-0.6c0.5-0.3,0.7-0.2,1,0.4c0.6,1.8,1.4,3.4,2.8,4.7c0.4,0.3,0.3,0.6-0.1,0.7
			c-0.7,0.2-1.4,0.4-2.1,0.6c-0.4,0.1-0.6-0.2-0.8-0.5c-0.2-0.7-0.5-1.5-0.7-2.2c-0.1-0.3-0.2-0.7-0.6-0.6c-0.4,0.1-0.3,0.5-0.2,0.8
			c0.2,0.7,0.4,1.4,0.7,2.1c0.2,0.5,0.1,0.8-0.4,1C97,93,94,93.9,91.1,94.7C91,94.7,90.9,94.7,90.9,94.7z"/>
		<path class="st2" d="M176.5,85.1c0.3-0.3,0.5-0.6,0.6-1.1c0-0.1,0-0.3,0.2-0.3c0.2,0,0.2,0.2,0.2,0.3c0.1,0.6-0.5,1.5-1.1,1.8
			C176.3,85.6,176.5,85.4,176.5,85.1C176.5,85.1,176.5,85.1,176.5,85.1z"/>
		<path class="st26" d="M184.4,59.8c-0.8,1.7-1.6,3.4-2.1,5.2c-0.1,0.3-0.3,0.7-0.4,1c-0.2-1.5-0.2-3-0.2-4.4c0-0.1,0.1-0.2,0.1-0.3
			c0.9-0.6,1.7-1.4,2.6-2.3C184.5,59.4,184.5,59.6,184.4,59.8z"/>
		<path class="st27" d="M197.1,123.7c-0.3,0.4-0.1,0.8,0.1,1.1c1.1,2.5,1.6,5.2,1.4,8c-0.1,1.3-0.1,1.3-1.4,1.6
			c-1.4,0.3-2.9,0.6-4.3,0.5c-0.3,0-0.7-0.1-1-0.1c-1.1-0.3-1.3-0.5-1.4-1.6c-0.1-1.6,0-3.1,0.1-4.7c0.1-0.7-0.1-0.9-0.7-0.6
			c-0.2,0.1-0.5,0.2-0.7,0.3c-0.3,0.1-0.5,0.1-0.8-0.2c-0.2-0.3-0.2-0.6,0-0.8c0.8-0.9,1.5-1.7,2.4-2.5c0.2-0.2,0.5-0.4,0.3-0.8
			c0.1-0.3,0.4-0.3,0.7-0.3c1.5,0,3,0,4.6,0C196.7,123.5,197,123.4,197.1,123.7z"/>
		<path class="st28" d="M197.1,123.7c-2,0.3-4,0.1-6,0c-1.5-0.1-1.6-0.2-1.1-1.7c0-0.1,0.1-0.1,0.1-0.3c0.6,0.6,1.3,0.7,2.1,0.8
			c1.6,0.4,1.4,0.1,2.1,0c1,0,2-0.2,3-0.4c0.4-0.1,0.6,0,0.5,0.5C197.7,123,198,123.7,197.1,123.7z"/>
		<path class="st27" d="M192.3,122.5c0.7,0,1.4,0,2.1,0"/>
	</g>
	<path d="M101,91.8L101,91.8c-0.1,0-0.2,0-0.3-0.1l-1-3c0-0.1,0-0.2,0.1-0.2l0.1,0c0.1,0,0.2,0,0.2,0.1l1,3
		C101.2,91.7,101.1,91.8,101,91.8z"/>
	<path class="st29" d="M177.4,39.4c0,0.3-0.6,1-1,1s-0.7-0.5-0.7-0.8s0.3-0.6,0.7-0.6C176.8,39,177.4,39.1,177.4,39.4z"/>
</g>
</svg>
