<?xml version="1.0" encoding="utf-8"?>
<!-- Generator: Adobe Illustrator 22.0.1, SVG Export Plug-In . SVG Version: 6.00 Build 0)  -->
<svg version="1.1" id="Capa_1" xmlns="http://www.w3.org/2000/svg" xmlns:xlink="http://www.w3.org/1999/xlink" x="0px" y="0px"
	 viewBox="0 0 157.7 147.9" style="enable-background:new 0 0 157.7 147.9;" xml:space="preserve">
<style type="text/css">
	.st0{fill:#DE4E01;}
	.st1{fill:#3F4C4E;}
	.st2{fill:#FFFFFF;}
</style>
<g>
	<g>
		<path class="st0" d="M99.9,55.5c0.2,0.2,0.3,0.3,0.5,0.5c1.9,2.1,3.5,4.4,4.8,7c1.4,2.6,2.4,5.3,3,8.2c0.2,0.8,0.3,1.7,0.5,2.5
			c0.1,0.6,0.2,1.2,0.2,1.8c0.2,1.6,0.2,3.3,0.1,5c0,0.5-0.1,1-0.1,1.5c0,0.2,0,0.5-0.1,0.7c-0.6,5.5-2.5,10.6-5.6,15.2
			c-3.4,5.1-7.9,8.9-13.4,11.6c-2.2,1.1-4.5,1.9-6.9,2.4c-0.8,0.2-1.6,0.3-2.4,0.5c-0.6,0.1-1.2,0.2-1.8,0.2c-0.4,0-0.8,0.1-1.2,0.1
			c-0.2,0-0.3,0-0.5,0c-0.1,0-0.3,0-0.4,0c-1.4,0-2.7,0-4.1,0c0,0,0-0.1-0.1-0.1c-0.4,0-0.9-0.1-1.3-0.1c-0.6-0.1-1.2-0.1-1.8-0.2
			c-0.9-0.1-1.7-0.3-2.6-0.5c-2.7-0.7-5.3-1.7-7.8-3c-4.8-2.6-8.7-6-11.8-10.5c-2.1-3-3.7-6.3-4.8-9.8c-0.4-1.2-0.6-2.4-0.9-3.6
			c-0.1-0.4-0.2-0.9-0.2-1.3c-0.1-0.5-0.1-1-0.2-1.5C41,81.5,41,80.9,41,80.3c0-0.1,0-0.2,0-0.3c0-0.1,0-0.2,0-0.4
			c0,0,0-0.1-0.1-0.1c0-0.5,0-1.1,0-1.6c0,0,0.1,0,0.1-0.1c0-0.1,0-0.2,0-0.4c0-0.1,0-0.3,0-0.4c0-0.6,0.1-1.1,0.1-1.7
			c0-0.5,0.1-1,0.2-1.5c0.1-0.5,0.1-0.9,0.2-1.4c0.2-1.2,0.5-2.3,0.8-3.4c1.2-4,3-7.7,5.6-11c2.9-3.8,6.4-6.8,10.6-9.2
			c2.7-1.5,5.5-2.6,8.5-3.3c0.9-0.2,1.8-0.4,2.7-0.5c0.7-0.1,1.3-0.2,2-0.3c1.2-0.1,2.3-0.2,3.5-0.2c0.8,0,1.6,0,2.4,0.1
			c0.4,0,0.8,0.1,1.2,0.1c0.5,0.1,0.9,0.1,1.4,0.2c0.4,0.1,0.9,0.1,1.3,0.2c1.2,0.2,2.3,0.5,3.5,0.8c3.5,1,6.7,2.6,9.6,4.7
			c1.3,0.9,2.5,1.9,3.7,2.9c0,0,0.1,0.1,0.1,0.1C98.1,53.9,98,54,98,54.1c-1.2,1.2-2.3,2.3-3.5,3.5c-0.1,0.1-0.1,0.1-0.2,0.2
			c0,0-0.1,0.1-0.1,0.1c-0.1-0.1-0.3-0.2-0.4-0.4c-2.1-1.8-4.4-3.3-6.9-4.5c-1.8-0.8-3.6-1.4-5.5-1.9c-0.8-0.2-1.5-0.3-2.3-0.4
			c-0.4-0.1-0.8-0.1-1.2-0.2c-0.4,0-0.9-0.1-1.3-0.1c-1.7-0.1-3.4,0-5.1,0.2c-0.7,0.1-1.3,0.2-2,0.3c-1.6,0.3-3.2,0.8-4.7,1.4
			c-3.9,1.5-7.3,3.8-10.3,6.9c-1.9,2-3.5,4.2-4.8,6.7c-1.1,2.1-1.9,4.4-2.4,6.8c-0.2,1.1-0.4,2.3-0.5,3.4c-0.1,0.6-0.1,1.2-0.1,1.9
			c0,1.5,0,2.9,0.2,4.4c0.1,0.7,0.2,1.4,0.4,2.1c0.3,1.7,0.9,3.4,1.5,5c1.9,4.6,4.8,8.5,8.8,11.6c3.1,2.4,6.6,4.1,10.4,5.1
			c0.9,0.2,1.9,0.4,2.9,0.6c0.5,0.1,1,0.1,1.5,0.2c0.7,0.1,1.3,0.1,2,0.1c0.9,0,1.8,0,2.7-0.1c0.6,0,1.2-0.1,1.8-0.2
			c0.6-0.1,1.3-0.2,1.9-0.3c1.5-0.3,3-0.7,4.4-1.3c5.3-2,9.6-5.3,12.9-9.9c1.9-2.6,3.3-5.4,4.2-8.4c0.3-1,0.6-2.1,0.8-3.1
			c0.1-0.5,0.2-1.1,0.2-1.6c0-0.3,0.1-0.5,0.1-0.8c0.1-0.5,0.1-1.1,0.1-1.6c0-1,0-1.9,0-2.9c0-0.4-0.1-0.9-0.1-1.3
			c-0.1-0.7-0.2-1.4-0.3-2.1c-0.2-1.1-0.5-2.2-0.8-3.3c-1.1-3.6-2.9-6.8-5.4-9.7c-0.2-0.3-0.5-0.6-0.7-0.9c0-0.1,0.1-0.1,0.1-0.2
			c1.2-1.2,2.5-2.5,3.7-3.7C99.8,55.6,99.9,55.6,99.9,55.5z"/>
		<path class="st1" d="M94.2,57.8c0,0,0.1,0,0.1-0.1c0.1-0.1,0.1-0.1,0.2-0.2c1.2-1.2,2.3-2.3,3.5-3.5c0.1-0.1,0.2-0.2,0.3-0.3
			c0,0,0.1-0.1,0.1-0.1c0.2-0.2,0.3-0.3,0.5-0.5c3.3-3.3,6.5-6.5,9.8-9.8c0.3-0.3,0.3-0.2,0.3-0.6c0,0,0-0.1,0-0.1
			c0-1.1-0.1-2.3-0.1-3.4c0-0.7,0-1.4-0.1-2c0-0.5-0.1-0.3,0.3-0.6c4-4,8-8,12-12c0.1-0.1,0.2-0.2,0.3-0.2c0,0,0.1,0,0.1,0
			c0,0.1,0,0.2,0,0.3c0,1.1,0,2.1,0,3.2c0,1.4,0,2.9,0,4.3c0,0.3,0,0.3,0.3,0.3c2,0,4.1,0,6.1,0c0.4,0,0.9,0,1.3,0
			c0.1,0,0.2,0,0.4,0c0,0,0,0,0,0.1c0,0,0,0-0.1,0c-0.1,0.1-0.2,0.2-0.3,0.3c-3.9,3.9-7.9,7.9-11.8,11.8c-0.1,0.1-0.2,0.2-0.3,0.3
			c-0.1,0.1-0.1,0.1-0.2,0.1c-0.1,0-0.1,0-0.2,0c-0.7,0-1.4,0-2.2-0.1c-1.2,0-2.4-0.1-3.7-0.1c0,0-0.1,0-0.1,0c-0.1,0-0.1,0-0.2,0.1
			c-0.1,0.1-0.2,0.2-0.3,0.3c-1.4,1.4-2.8,2.8-4.3,4.3c-1.8,1.8-3.6,3.6-5.4,5.4c-0.2,0.2-0.4,0.4-0.5,0.5c0,0-0.1,0.1-0.1,0.1
			c-0.1,0-0.1,0.1-0.2,0.1c-1.2,1.2-2.5,2.5-3.7,3.7c-0.1,0.1-0.1,0.1-0.1,0.2c-0.1,0-0.1,0.1-0.2,0.1c-1.3,1.3-2.6,2.6-3.9,3.9
			c0,0-0.1,0.1-0.1,0.1c-0.1,0.1-0.2,0.2-0.3,0.2c-0.8,0.8-1.7,1.7-2.5,2.5c-0.3,0.3-0.5,0.5-0.8,0.8c-0.1,0.1-0.2,0.2-0.3,0.3
			c-0.1,0-0.1,0.1-0.2,0.1c-1.1,1.1-2.3,2.3-3.4,3.4c-0.1,0.1-0.1,0.1-0.2,0.2c-0.1,0.1-0.2,0.2-0.3,0.3c-1.2,1.2-2.3,2.3-3.5,3.5
			c-0.1,0.1-0.3,0.3-0.4,0.4c0,0,0,0.1-0.1,0.1c0,0-0.1,0-0.1,0.1c-0.1,0.1-0.2,0.1-0.2,0.2c-1.1,1.1-2.1,2.1-3.2,3.2
			c-0.1,0.1-0.1,0.2-0.2,0.2c-0.5,0.4-1.1,0.3-1.5-0.1c-0.1-0.1-0.1-0.1-0.2-0.2c-0.3-0.5-0.3-1,0.1-1.4c0.1-0.1,0.1-0.2,0.2-0.2
			c0.7-0.7,1.5-1.5,2.2-2.2c0.4-0.4,0.8-0.8,1.2-1.2c0.1-0.1,0.1-0.1,0.2-0.2c0.1,0,0.2-0.1,0.2-0.2c1.3-1.3,2.5-2.5,3.8-3.8
			c0.1-0.1,0.1-0.1,0.2-0.2c0.1-0.1,0.2-0.1,0.3-0.2c1.1-1.1,2.1-2.1,3.2-3.2C86,66.1,86,66,86.1,66c0,0,0.1-0.1,0.1-0.1
			c0.1,0,0.2-0.1,0.2-0.2c1.1-1.1,2.3-2.3,3.4-3.4c0.1-0.1,0.1-0.1,0.2-0.2c0.1-0.1,0.2-0.1,0.3-0.2c1.2-1.2,2.4-2.4,3.7-3.7
			C94,58.1,94,58,94.1,58C94.1,57.9,94.1,57.9,94.2,57.8z"/>
		<path class="st2" d="M94.2,57.8c0,0,0,0.1-0.1,0.1C94,58,94,58.1,93.9,58.1c-1.2,1.2-2.4,2.4-3.7,3.7C90.2,61.9,90.1,62,90,62
			c0,0,0,0,0-0.1c-1.7-1.5-3.6-2.8-5.7-3.7c-1.5-0.7-3-1.2-4.5-1.5c-0.8-0.2-1.7-0.3-2.6-0.4c-0.6-0.1-1.2-0.1-1.9-0.1
			c-0.5,0-0.9,0-1.4,0c-0.6,0-1.1,0.1-1.7,0.1c-0.6,0.1-1.2,0.2-1.8,0.3c-1.6,0.3-3.2,0.9-4.8,1.6c-3,1.4-5.6,3.3-7.8,5.9
			c-2,2.4-3.5,5-4.4,8c-0.4,1.4-0.7,2.9-0.9,4.3c-0.1,0.7-0.1,1.3-0.1,2c0,0.8,0,1.6,0.1,2.4c0.1,0.7,0.2,1.4,0.3,2
			c0.3,1.6,0.8,3.1,1.4,4.6c2.2,5.1,6.2,9.2,11.2,11.5c1.6,0.7,3.3,1.3,5,1.6c0.6,0.1,1.2,0.2,1.8,0.3c0.6,0.1,1.1,0.1,1.7,0.1
			c0.2,0,0.4,0,0.5,0c1,0,1.9,0,2.8-0.1c0.6-0.1,1.1-0.1,1.7-0.2c1.3-0.2,2.6-0.6,3.8-1.1c4.2-1.6,7.6-4.2,10.3-7.8
			c2.7-3.7,4.1-7.8,4.3-12.4c0-1.3,0-2.7-0.2-4c-0.1-0.9-0.3-1.8-0.5-2.6c-0.7-2.7-1.9-5.2-3.6-7.5c-0.4-0.6-0.9-1.1-1.4-1.7
			c0,0,0.1-0.1,0.1-0.1c1.3-1.3,2.6-2.6,3.9-3.9c0.1-0.1,0.1-0.1,0.2-0.1c0.2,0.3,0.5,0.6,0.7,0.9c2.4,2.9,4.2,6.1,5.4,9.7
			c0.4,1.1,0.6,2.2,0.8,3.3c0.1,0.7,0.2,1.4,0.3,2.1c0,0.4,0.1,0.9,0.1,1.3c0.1,1,0.1,1.9,0,2.9c0,0.5-0.1,1.1-0.1,1.6
			c0,0.3-0.1,0.5-0.1,0.8c-0.1,0.5-0.1,1.1-0.2,1.6c-0.2,1.1-0.4,2.1-0.8,3.1c-0.9,3-2.3,5.9-4.2,8.4c-3.3,4.6-7.6,7.9-12.9,9.9
			c-1.4,0.5-2.9,1-4.4,1.3c-0.6,0.1-1.3,0.2-1.9,0.3c-0.6,0.1-1.2,0.1-1.8,0.2c-0.9,0.1-1.8,0.1-2.7,0.1c-0.7,0-1.3-0.1-2-0.1
			c-0.5,0-1-0.1-1.5-0.2c-1-0.1-1.9-0.3-2.9-0.6c-3.8-1-7.3-2.7-10.4-5.1c-3.9-3.1-6.9-7-8.8-11.6c-0.7-1.6-1.2-3.3-1.5-5
			c-0.1-0.7-0.3-1.4-0.4-2.1c-0.2-1.5-0.2-2.9-0.2-4.4c0-0.6,0-1.2,0.1-1.9c0.1-1.2,0.3-2.3,0.5-3.4c0.5-2.4,1.3-4.6,2.4-6.8
			c1.3-2.5,2.8-4.7,4.8-6.7c2.9-3,6.3-5.3,10.3-6.9c1.5-0.6,3.1-1.1,4.7-1.4c0.7-0.1,1.3-0.2,2-0.3c1.7-0.2,3.4-0.3,5.1-0.2
			c0.4,0,0.9,0.1,1.3,0.1c0.4,0,0.8,0.1,1.2,0.2c0.8,0.1,1.5,0.3,2.3,0.4c1.9,0.4,3.7,1.1,5.5,1.9c2.5,1.2,4.8,2.7,6.9,4.5
			C93.9,57.6,94,57.7,94.2,57.8z"/>
		<path class="st0" d="M91.7,63.7c0.5,0.5,0.9,1.1,1.4,1.7c1.7,2.3,2.9,4.7,3.6,7.5c0.2,0.9,0.4,1.7,0.5,2.6c0.2,1.3,0.3,2.7,0.2,4
			c-0.2,4.6-1.6,8.7-4.3,12.4c-2.6,3.6-6.1,6.2-10.3,7.8c-1.2,0.5-2.5,0.8-3.8,1.1c-0.6,0.1-1.1,0.2-1.7,0.2
			c-0.9,0.1-1.9,0.1-2.8,0.1c-0.2,0-0.4,0-0.5,0c-0.6,0-1.1-0.1-1.7-0.1c-0.6-0.1-1.2-0.2-1.8-0.3c-1.7-0.3-3.4-0.9-5-1.6
			c-5-2.3-9-6.5-11.2-11.5c-0.6-1.5-1.1-3-1.4-4.6c-0.1-0.7-0.2-1.4-0.3-2c-0.1-0.8-0.1-1.6-0.1-2.4c0-0.7,0-1.3,0.1-2
			c0.1-1.5,0.4-2.9,0.9-4.3c0.9-3,2.4-5.6,4.4-8c2.2-2.5,4.7-4.5,7.8-5.9c1.5-0.7,3.1-1.2,4.8-1.6c0.6-0.1,1.2-0.2,1.8-0.3
			c0.6-0.1,1.1-0.1,1.7-0.1c0.5,0,0.9,0,1.4,0c0.6,0,1.2,0,1.9,0.1c0.9,0.1,1.7,0.2,2.6,0.4c1.6,0.3,3.1,0.8,4.5,1.5
			c2.1,0.9,4,2.2,5.7,3.7c0,0,0,0,0,0.1c-0.1,0.1-0.1,0.1-0.2,0.2c-1.1,1.1-2.3,2.3-3.4,3.4c-0.1,0.1-0.1,0.2-0.2,0.2
			c-0.1-0.1-0.2-0.2-0.3-0.3c-1-0.8-2-1.5-3.2-2.1c-1.6-0.8-3.4-1.4-5.2-1.6c-0.7-0.1-1.5-0.2-2.2-0.2c-0.4,0-0.8,0-1.1,0
			c-0.5,0-1,0.1-1.5,0.1c-1,0.1-2,0.4-2.9,0.7c-4,1.3-7.2,4-9.3,7.5c-1.2,2.1-2,4.3-2.2,6.7C58,77.4,58,78,58,78.5
			c0,0.4,0,0.8,0,1.2c0,0.6,0.1,1.3,0.2,1.9c0.2,1,0.4,2,0.8,2.9c1.6,4.5,5.2,8.3,10.1,10.1c1.3,0.5,2.5,0.8,3.9,0.9
			c0.6,0.1,1.1,0.1,1.7,0.1c1,0,1.9,0,2.9-0.2c0.9-0.1,1.7-0.3,2.5-0.6c4.2-1.3,7.7-4.2,9.8-8c0.8-1.5,1.4-3.1,1.8-4.8
			c0.1-0.7,0.2-1.4,0.3-2.2c0.1-1,0.1-1.9,0-2.9c-0.1-0.6-0.2-1.2-0.3-1.9c-0.4-2.1-1.3-4.1-2.5-5.8c-0.4-0.6-0.8-1.2-1.3-1.7
			c0.1-0.1,0.2-0.2,0.3-0.3c0.3-0.3,0.5-0.5,0.8-0.8c0.8-0.8,1.7-1.7,2.5-2.5C91.5,63.9,91.6,63.8,91.7,63.7z"/>
		<path class="st2" d="M87.9,67.6c0.5,0.6,0.9,1.1,1.3,1.7c1.2,1.8,2,3.7,2.5,5.8c0.1,0.6,0.2,1.2,0.3,1.9C92,78,92,79,92,80
			c0,0.7-0.1,1.4-0.3,2.2c-0.3,1.7-0.9,3.3-1.8,4.8c-2.1,3.8-5.6,6.7-9.8,8c-0.8,0.3-1.7,0.5-2.5,0.6c-1,0.1-1.9,0.2-2.9,0.2
			c-0.6,0-1.1,0-1.7-0.1c-1.3-0.2-2.6-0.5-3.9-0.9c-4.8-1.8-8.4-5.6-10.1-10.1c-0.3-1-0.6-1.9-0.8-2.9C58.1,81,58,80.4,58,79.8
			c0-0.4,0-0.8,0-1.2c0-0.6,0-1.1,0.1-1.7c0.3-2.4,1-4.7,2.2-6.7c2.1-3.5,5.3-6.2,9.3-7.5c1-0.3,1.9-0.6,2.9-0.7
			c0.5-0.1,1-0.1,1.5-0.1c0.4,0,0.8,0,1.1,0c0.7,0,1.5,0.1,2.2,0.2c1.8,0.3,3.6,0.8,5.2,1.6c1.1,0.6,2.2,1.3,3.2,2.1
			c0.1,0.1,0.2,0.2,0.3,0.3c0,0,0,0.1-0.1,0.1c0,0.1-0.1,0.1-0.1,0.2c-1.1,1.1-2.1,2.1-3.2,3.2c-0.1,0.1-0.2,0.2-0.3,0.2
			c0,0-0.1-0.1-0.1-0.1c-1.1-0.8-2.2-1.4-3.5-1.9c-1-0.3-1.9-0.5-3-0.6c-0.7-0.1-1.4,0-2.2,0c-0.5,0.1-1,0.1-1.5,0.3
			c-2,0.5-3.8,1.5-5.4,2.9c-2.5,2.4-3.7,5.3-3.7,8.7c0,0.2,0,0.5,0,0.7c0,0.6,0.1,1.2,0.3,1.8c0.5,2.2,1.6,4.2,3.2,5.8
			c2.3,2.2,5,3.4,8.2,3.5c0.8,0,1.5-0.1,2.2-0.2c1.1-0.2,2.2-0.5,3.2-1.1c1.5-0.7,2.8-1.8,3.9-3.1c1.7-2.1,2.6-4.5,2.7-7.2
			c0-0.9,0-1.9-0.2-2.8c-0.4-1.8-1.1-3.4-2.3-4.8c-0.1-0.1-0.1-0.2-0.2-0.2c0-0.1,0.1-0.1,0.2-0.2c1.1-1.1,2.3-2.3,3.4-3.4
			C87.7,67.7,87.8,67.6,87.9,67.6z"/>
		<path class="st0" d="M84.2,71.3c0.1,0.1,0.1,0.2,0.2,0.2c1.1,1.4,1.9,3.1,2.3,4.8c0.2,0.9,0.3,1.9,0.2,2.8c-0.1,2.7-1,5.1-2.7,7.2
			c-1.1,1.3-2.4,2.3-3.9,3.1c-1,0.5-2.1,0.9-3.2,1.1c-0.7,0.1-1.5,0.2-2.2,0.2c-3.2-0.1-5.9-1.2-8.2-3.5c-1.6-1.6-2.7-3.6-3.2-5.8
			c-0.1-0.6-0.2-1.2-0.3-1.8c0-0.2,0-0.5,0-0.7c0-3.4,1.3-6.4,3.7-8.7c1.5-1.5,3.3-2.4,5.4-2.9c0.5-0.1,1-0.2,1.5-0.3
			c0.7-0.1,1.4-0.1,2.2,0c1,0.1,2,0.3,3,0.6c1.3,0.4,2.4,1.1,3.5,1.9c0,0,0.1,0.1,0.1,0.1c-0.1,0.1-0.1,0.1-0.2,0.2
			c-1.3,1.3-2.5,2.5-3.8,3.8c-0.1,0.1-0.1,0.1-0.2,0.2c-0.1-0.1-0.2-0.1-0.2-0.2c-0.8-0.5-1.7-0.8-2.6-0.9c-0.7-0.1-1.3,0-1.9,0.2
			c-2.9,0.8-4.8,3.8-4,6.9c0.6,2.3,2.5,4.1,5.1,4.3c0.7,0.1,1.4,0,2.1-0.2c2.7-0.8,4.3-3.4,4-6.1c-0.1-0.7-0.3-1.4-0.6-2
			c0-0.1-0.1-0.2-0.1-0.3c0,0,0-0.1,0.1-0.1c0.1-0.1,0.2-0.3,0.4-0.4c1.2-1.2,2.3-2.3,3.5-3.5C84,71.5,84,71.3,84.2,71.3z"/>
		<path class="st2" d="M79.9,75.6c0,0.1,0.1,0.2,0.1,0.3c0.3,0.6,0.5,1.3,0.6,2c0.3,2.7-1.3,5.3-4,6.1c-0.7,0.2-1.4,0.3-2.1,0.2
			c-2.6-0.2-4.5-2-5.1-4.3c-0.8-3.1,1.1-6.1,4-6.9c0.6-0.2,1.3-0.2,1.9-0.2c0.9,0.1,1.8,0.4,2.6,0.9c0.1,0.1,0.2,0.1,0.2,0.2
			c0,0.1-0.1,0.2-0.2,0.2c-0.4,0.4-0.8,0.8-1.2,1.2c-0.7,0.7-1.5,1.5-2.2,2.2c-0.1,0.1-0.2,0.1-0.2,0.2c-0.3,0.4-0.4,0.9-0.1,1.4
			c0.1,0.1,0.1,0.1,0.2,0.2c0.4,0.4,1,0.5,1.5,0.1c0.1-0.1,0.2-0.1,0.2-0.2c1.1-1.1,2.1-2.1,3.2-3.2c0.1-0.1,0.1-0.2,0.2-0.2
			C79.8,75.6,79.9,75.6,79.9,75.6z"/>
	</g>
</g>
</svg>
