<?xml version="1.0" encoding="utf-8"?>
<!-- Generator: Adobe Illustrator 22.0.1, SVG Export Plug-In . SVG Version: 6.00 Build 0)  -->
<svg version="1.1" id="Capa_1" xmlns="http://www.w3.org/2000/svg" xmlns:xlink="http://www.w3.org/1999/xlink" x="0px" y="0px"
	 viewBox="0 0 102.8 107.4" style="enable-background:new 0 0 102.8 107.4;" xml:space="preserve">
<style type="text/css">
	.st0{fill:#CCE0E5;}
</style>
<g>
	<path class="st0" d="M30.6,38c0.5-1.2,1.3-2.1,2.7-2.1c1.3,0,2.5,0.9,2.7,2.2c0.3,1.4-0.5,2.7-1.8,3.2c-1.3,0.5-2.7-0.1-3.3-1.2
		c-0.1-0.2-0.2-0.5-0.4-0.7C30.6,38.9,30.6,38.5,30.6,38z"/>
	<path class="st0" d="M30.6,56.3c0.1-0.2,0.2-0.3,0.3-0.5c0.6-1.2,1.9-1.9,3.1-1.5c1.3,0.3,2.1,1.4,2.1,2.7c0,1.3-0.9,2.4-2.1,2.7
		c-1.3,0.3-2.5-0.4-3.1-1.6c-0.1-0.2-0.2-0.3-0.2-0.5C30.6,57.2,30.6,56.7,30.6,56.3z"/>
	<path class="st0" d="M30.6,47.2c0.5-1.1,1.1-1.9,2.4-2.1c1.4-0.2,2.7,0.7,3,2.1c0.3,1.4-0.4,2.8-1.7,3.3c-1.3,0.5-2.8-0.1-3.5-1.4
		c-0.1-0.2-0.2-0.4-0.3-0.6C30.6,48,30.6,47.6,30.6,47.2z"/>
	<path class="st0" d="M56,49.9c-4.4,0-8.9,0-13.3,0c-0.4,0-0.9-0.1-1.3-0.2c-0.8-0.4-1.3-1.3-1.2-2.1c0.1-0.9,0.8-1.6,1.8-1.8
		c0.3-0.1,0.6,0,1,0c8.8,0,17.5,0,26.3,0c1.7,0,2.7,0.8,2.7,2.1c0,1.3-1,2.1-2.7,2.1C64.8,49.9,60.4,49.9,56,49.9z"/>
	<path class="st0" d="M56,36.4c4.5,0,9,0,13.4,0c0.7,0,1.4,0.2,1.9,0.7c0.5,0.6,0.7,1.2,0.4,1.9c-0.3,0.8-0.8,1.3-1.6,1.4
		c-0.3,0.1-0.6,0.1-1,0.1c-8.8,0-17.6,0-26.3,0c-0.5,0-1,0-1.5-0.2c-0.9-0.4-1.4-1.3-1.2-2.2c0.2-1,1.1-1.6,2.2-1.6
		c4.1,0,8.1,0,12.2,0C55.1,36.4,55.6,36.4,56,36.4z"/>
	<path class="st0" d="M56.1,59.2c-4.5,0-9,0-13.4,0c-0.6,0-1.3-0.3-1.8-0.7c-0.6-0.5-0.8-1.2-0.5-2c0.3-0.8,0.8-1.3,1.6-1.4
		c0.3,0,0.5-0.1,0.8-0.1c8.9,0,17.8,0,26.7,0c0.4,0,0.9,0.1,1.3,0.2c0.9,0.4,1.4,1.4,1.2,2.2c-0.2,0.9-1,1.6-2,1.6
		c-1.6,0-3.1,0-4.7,0C62.1,59.2,59.1,59.2,56.1,59.2z"/>
	<path class="st0" d="M30.7,65.5c0.1-0.2,0.2-0.3,0.3-0.5c0.6-1.2,1.9-1.9,3.1-1.5c1.3,0.3,2.1,1.4,2.1,2.7c0,1.3-0.9,2.4-2.1,2.7
		c-1.3,0.3-2.5-0.4-3.1-1.6c-0.1-0.2-0.2-0.3-0.2-0.5C30.7,66.3,30.7,65.9,30.7,65.5z"/>
	<path class="st0" d="M56.2,68.4c-4.5,0-9,0-13.4,0c-0.6,0-1.3-0.3-1.8-0.7c-0.6-0.5-0.8-1.2-0.5-2c0.3-0.8,0.8-1.3,1.6-1.4
		c0.3,0,0.5-0.1,0.8-0.1c8.9,0,17.8,0,26.7,0c0.4,0,0.9,0.1,1.3,0.2c0.9,0.4,1.4,1.4,1.2,2.2c-0.2,0.9-1,1.6-2,1.6
		c-1.6,0-3.1,0-4.7,0C62.2,68.4,59.2,68.4,56.2,68.4z"/>
</g>
</svg>
