<?xml version="1.0" encoding="utf-8"?>
<!-- Generator: Adobe Illustrator 22.0.1, SVG Export Plug-In . SVG Version: 6.00 Build 0)  -->
<svg version="1.1" id="Capa_1" xmlns="http://www.w3.org/2000/svg" xmlns:xlink="http://www.w3.org/1999/xlink" x="0px" y="0px"
	 viewBox="0 0 102.8 107.4" style="enable-background:new 0 0 102.8 107.4;" xml:space="preserve">
<style type="text/css">
	.st0{fill:#CCE0E5;}
</style>
<g>
	<path class="st0" d="M29.6,48.2c-2.1-0.7-4.1-1.5-6.3-2.3c0.6-0.3,0.9-0.4,1.3-0.6c9.4-3.6,18.9-7.3,28.3-10.9
		c0.5-0.2,1.2-0.3,1.7-0.1c9.7,3.7,19.3,7.4,29,11.1c0.2,0.1,0.4,0.2,0.7,0.3c-0.4,0.2-0.6,0.4-0.9,0.4c-9.6,3.1-19.2,6.3-28.8,9.4
		c-0.4,0.1-0.8,0.2-1.1,0.1C47.2,53.9,41,52,34.9,50.1c-0.2-0.1-0.4-0.2-0.6-0.3c0.9-0.8,2.5-0.4,3.3-1.9c-1.4,0.3-2.6,0.5-3.8,0.9
		c-0.3,0.1-0.5,0.5-0.6,0.8c-0.3,4.1-0.5,8.3-0.7,12.4c0,0.8-0.3,1.1-1,1.4c-1.5,0.5-2.9,0.4-4.3-0.2c-0.3-0.1-0.5-0.7-0.5-1
		c-0.1-2.9,0.8-5.7,1.8-8.4c0.7-1.9,1.5-3.8,2.3-5.6c0.1-0.3,0.5-0.5,0.8-0.7c0.4-0.2,0.8-0.2,1.4-0.4
		C31.3,46.6,30.3,46.9,29.6,48.2z"/>
	<path class="st0" d="M72,52.4c0,3.4,0.1,6.6,0,9.8c-0.1,2.1-1.8,3.2-3.5,4.1c-4.6,2.5-9.7,3.2-14.9,3.2c-5,0-9.8-0.7-14.3-3.1
		c-2.5-1.3-4-3.2-3.8-6.2c0.2-2.6,0-5.2,0-7.9c0.5,0.1,0.9,0.2,1.3,0.4c5.1,1.6,10.3,3.1,15.4,4.8c1.1,0.4,2.1,0.3,3.2,0
		c5.1-1.6,10.3-3.2,15.4-4.8C71.1,52.6,71.5,52.5,72,52.4z"/>
</g>
</svg>
