<?xml version="1.0" encoding="utf-8"?>
<!-- Generator: Adobe Illustrator 22.0.1, SVG Export Plug-In . SVG Version: 6.00 Build 0)  -->
<svg version="1.1" id="Capa_1" xmlns="http://www.w3.org/2000/svg" xmlns:xlink="http://www.w3.org/1999/xlink" x="0px" y="0px"
	 viewBox="0 0 102.8 107.4" style="enable-background:new 0 0 102.8 107.4;" xml:space="preserve">
<style type="text/css">
	.st0{fill:#CCE0E5;}
</style>
<g>
	<path class="st0" d="M67.4,66.7c-0.5,1.2-1.1,2.1-2.3,2c-1-0.1-1.9-1-2-2.4c0-0.4,0-0.8,0-1.2c0-8.8,0-17.5,0-26.3
		c0-0.5,0-1.1,0.1-1.6c0.3-1,0.8-1.7,1.7-1.9c0.9-0.2,1.7,0.3,2.2,1.2c0.1,0.2,0.2,0.5,0.4,0.7C67.4,47.1,67.4,56.9,67.4,66.7z"/>
	<path class="st0" d="M54.3,54.7c0-3.6,0-7.3,0-10.9c0-2.1,1.4-3.4,2.9-2.7c0.9,0.4,1.4,1.4,1.4,2.7c0,2.9,0,5.9,0,8.8
		c0,4.4,0,8.8,0,13.2c0,1.6-0.8,2.8-2,2.9c-1.3,0.1-2.3-1.1-2.3-2.9c0-3,0-5.9,0-8.9C54.3,56.1,54.3,55.4,54.3,54.7z"/>
	<path class="st0" d="M45.6,57.6c0-2.8,0-5.7,0-8.5c0-1.4,0.8-2.4,1.8-2.6c1.1-0.2,2.1,0.6,2.4,1.9c0.1,0.2,0.1,0.5,0.1,0.8
		c0,5.6,0,11.2,0,16.8c0,1.7-1.1,2.8-2.4,2.7c-1.1-0.1-1.9-1.2-1.9-2.8C45.5,63.1,45.6,60.3,45.6,57.6
		C45.6,57.6,45.6,57.6,45.6,57.6z"/>
	<path class="st0" d="M41.2,60.4c0,1.8,0,3.5,0,5.3c0,1.8-0.9,3-2.2,3c-1.3,0-2.2-1.2-2.2-3c0-3.6,0-7.1,0-10.7c0-1.8,0.9-3,2.2-3
		c1.3,0,2.1,1.2,2.2,3c0,0.1,0,0.1,0,0.2C41.2,56.9,41.2,58.6,41.2,60.4z"/>
	<path class="st0" d="M28.1,63c0-0.9,0-1.8,0-2.6c0-1.6,0.9-2.8,2.2-2.8c1.2,0,2.1,1.1,2.2,2.7c0,1.9,0,3.8,0,5.8
		c0,1.6-1,2.7-2.2,2.6c-1.2,0-2.1-1.2-2.1-2.7C28,65,28.1,64,28.1,63C28.1,63,28.1,63,28.1,63z"/>
</g>
</svg>
