<?xml version="1.0" encoding="utf-8"?>
<!-- Generator: Adobe Illustrator 22.0.1, SVG Export Plug-In . SVG Version: 6.00 Build 0)  -->
<svg version="1.1" id="Capa_1" xmlns="http://www.w3.org/2000/svg" xmlns:xlink="http://www.w3.org/1999/xlink" x="0px" y="0px"
	 viewBox="0 0 256.7 470.2" style="enable-background:new 0 0 256.7 470.2;" xml:space="preserve">
<style type="text/css">
	.st0{fill:#00CC33;}
	.st1{fill:none;}
	.st2{font-family:'Roboto-Bold';}
	.st3{font-size:13.6498px;}
	.st4{fill:#EFE411;}
</style>
<g>
	<g>
		<path class="st0" d="M98.8,8.1c-0.1,0.5,0.3,0.7,0.6,1.1c9.3,12.9,18.7,25.7,28.1,38.6c0.2,0.3,0.4,0.6,0.6,0.9
			c-0.4,0.2-0.8,0.1-1.2,0.1c-6,0-11.9,0-17.9,0c-0.9,0-1.2,0.2-1.2,1.1c0,6.7,0,13.3,0,20c0,0.9-0.2,1.1-1.1,1.1
			c-5.5,0-11,0-16.4,0c-0.8,0-1-0.2-1-1c0-6.7,0-13.4,0-20.1c0-1-0.3-1.1-1.2-1.1c-6.3,0-12.6,0-19,0c0-0.5,0.4-0.8,0.6-1.1
			C79.2,34.8,88.5,22,97.9,9.1c0.2-0.3,0.6-0.5,0.5-1C98.5,8.1,98.7,8.1,98.8,8.1z"/>
		<path class="st0" d="M98.6,85.8c-1.7,0-3.5,0-5.2,0c-2.3,0-4-1.5-4-3.7c0-2.1,1.6-3.7,3.9-3.8c3.6,0,7.1,0,10.7,0
			c2.3,0,3.9,1.6,3.9,3.8c0,2.1-1.7,3.6-4,3.7C102.1,85.8,100.3,85.8,98.6,85.8z"/>
		<path class="st0" d="M98.7,108c1.8,0,3.6,0,5.3,0c2.3,0,3.8,1.6,3.8,3.7c0,2.1-1.6,3.7-3.9,3.7c-3.6,0-7.2,0-10.8,0
			c-2.2,0-3.8-1.6-3.8-3.7c0-2.1,1.6-3.6,3.9-3.7C95,108,96.9,108,98.7,108z"/>
		<path class="st0" d="M98.6,100.5c-1.8,0-3.6,0-5.3,0c-2.3,0-3.9-1.5-3.9-3.6c0-2.1,1.6-3.7,3.9-3.7c3.6,0,7.1,0,10.7,0
			c2.2,0,3.9,1.6,3.9,3.7c0,2.1-1.6,3.7-3.9,3.7C102.1,100.5,100.4,100.5,98.6,100.5z"/>
	</g>
	<rect x="69.4" y="130.2" class="st1" width="58.6" height="28.5"/>
	<text transform="matrix(1 0 0 1 78.0308 140.5831)" class="st2 st3">SPEED</text>
</g>
<g>
	<g>
		<path class="st0" d="M164.7,8.1c-0.1,0.5,0.3,0.7,0.6,1.1c9.3,12.9,18.7,25.7,28.1,38.6c0.2,0.3,0.4,0.6,0.6,0.9
			c-0.4,0.2-0.8,0.1-1.2,0.1c-6,0-11.9,0-17.9,0c-0.9,0-1.2,0.2-1.2,1.1c0,6.7,0,13.3,0,20c0,0.9-0.2,1.1-1.1,1.1
			c-5.5,0-11,0-16.4,0c-0.8,0-1-0.2-1-1c0-6.7,0-13.4,0-20.1c0-1-0.3-1.1-1.2-1.1c-6.3,0-12.6,0-19,0c0-0.5,0.4-0.8,0.6-1.1
			c9.4-12.9,18.7-25.7,28.1-38.6c0.2-0.3,0.6-0.5,0.5-1C164.4,8.1,164.6,8.1,164.7,8.1z"/>
		<path class="st0" d="M164.5,85.8c-1.7,0-3.5,0-5.2,0c-2.3,0-4-1.5-4-3.7c0-2.1,1.6-3.7,3.9-3.8c3.6,0,7.1,0,10.7,0
			c2.3,0,3.9,1.6,3.9,3.8c0,2.1-1.7,3.6-4,3.7C168,85.8,166.3,85.8,164.5,85.8z"/>
		<path class="st0" d="M164.6,108c1.8,0,3.6,0,5.3,0c2.3,0,3.8,1.6,3.8,3.7c0,2.1-1.6,3.7-3.9,3.7c-3.6,0-7.2,0-10.8,0
			c-2.2,0-3.8-1.6-3.8-3.7c0-2.1,1.6-3.6,3.9-3.7C161,108,162.8,108,164.6,108z"/>
		<path class="st0" d="M164.5,100.5c-1.8,0-3.6,0-5.3,0c-2.3,0-3.9-1.5-3.9-3.6c0-2.1,1.6-3.7,3.9-3.7c3.6,0,7.1,0,10.7,0
			c2.2,0,3.9,1.6,3.9,3.7c0,2.1-1.6,3.7-3.9,3.7C168.1,100.5,166.3,100.5,164.5,100.5z"/>
	</g>
	<rect x="135.3" y="130.2" class="st1" width="58.6" height="28.5"/>
	<text transform="matrix(1 0 0 1 144.2568 140.5831)" class="st2 st3">SALES</text>
</g>
<g>
	<g>
		<path class="st0" d="M97.6,153.9c-0.1,0.5,0.3,0.7,0.6,1.1c9.3,12.9,18.7,25.7,28.1,38.6c0.2,0.3,0.4,0.6,0.6,0.9
			c-0.4,0.2-0.8,0.1-1.2,0.1c-6,0-11.9,0-17.9,0c-0.9,0-1.2,0.2-1.2,1.1c0,6.7,0,13.3,0,20c0,0.9-0.2,1.1-1.1,1.1
			c-5.5,0-11,0-16.4,0c-0.8,0-1-0.2-1-1c0-6.7,0-13.4,0-20.1c0-1-0.3-1.1-1.2-1.1c-6.3,0-12.6,0-19,0c0-0.5,0.4-0.8,0.6-1.1
			c9.4-12.9,18.7-25.7,28.1-38.6c0.2-0.3,0.6-0.5,0.5-1C97.4,153.9,97.5,153.9,97.6,153.9z"/>
		<path class="st0" d="M97.4,231.6c-1.7,0-3.5,0-5.2,0c-2.3,0-4-1.5-4-3.7c0-2.1,1.6-3.7,3.9-3.8c3.6,0,7.1,0,10.7,0
			c2.3,0,3.9,1.6,3.9,3.8c0,2.1-1.7,3.6-4,3.7C100.9,231.6,99.2,231.6,97.4,231.6z"/>
		<path class="st0" d="M97.5,253.8c1.8,0,3.6,0,5.3,0c2.3,0,3.8,1.6,3.8,3.7c0,2.1-1.6,3.7-3.9,3.7c-3.6,0-7.2,0-10.8,0
			c-2.2,0-3.8-1.6-3.8-3.7c0-2.1,1.6-3.6,3.9-3.7C93.9,253.8,95.7,253.8,97.5,253.8z"/>
		<path class="st0" d="M97.4,246.3c-1.8,0-3.6,0-5.3,0c-2.3,0-3.9-1.5-3.9-3.6c0-2.1,1.6-3.7,3.9-3.7c3.6,0,7.1,0,10.7,0
			c2.2,0,3.9,1.6,3.9,3.7c0,2.1-1.6,3.7-3.9,3.7C101,246.3,99.2,246.3,97.4,246.3z"/>
	</g>
	<rect x="68.2" y="276" class="st1" width="58.6" height="28.5"/>
	<text transform="matrix(1 0 0 1 79.8159 286.382)"><tspan x="0" y="0" class="st2 st3">CASH </tspan><tspan x="-0.6" y="16.4" class="st2 st3">FLOW</tspan></text>
</g>
<g>
	<g>
		<path class="st0" d="M163.7,154.4c-0.1,0.5,0.3,0.7,0.6,1.1c9.3,12.9,18.7,25.7,28.1,38.6c0.2,0.3,0.4,0.6,0.6,0.9
			c-0.4,0.2-0.8,0.1-1.2,0.1c-6,0-11.9,0-17.9,0c-0.9,0-1.2,0.2-1.2,1.1c0,6.7,0,13.3,0,20c0,0.9-0.2,1.1-1.1,1.1
			c-5.5,0-11,0-16.4,0c-0.8,0-1-0.2-1-1c0-6.7,0-13.4,0-20.1c0-1-0.3-1.1-1.2-1.1c-6.3,0-12.6,0-19,0c0-0.5,0.4-0.8,0.6-1.1
			c9.4-12.9,18.7-25.7,28.1-38.6c0.2-0.3,0.6-0.5,0.5-1C163.5,154.4,163.6,154.4,163.7,154.4z"/>
		<path class="st0" d="M163.5,232c-1.7,0-3.5,0-5.2,0c-2.3,0-4-1.5-4-3.7c0-2.1,1.6-3.7,3.9-3.8c3.6,0,7.1,0,10.7,0
			c2.3,0,3.9,1.6,3.9,3.8c0,2.1-1.7,3.6-4,3.7C167,232.1,165.3,232,163.5,232z"/>
		<path class="st0" d="M163.6,254.2c1.8,0,3.6,0,5.3,0c2.3,0,3.8,1.6,3.8,3.7c0,2.1-1.6,3.7-3.9,3.7c-3.6,0-7.2,0-10.8,0
			c-2.2,0-3.8-1.6-3.8-3.7c0-2.1,1.6-3.6,3.9-3.7C160,254.2,161.8,254.2,163.6,254.2z"/>
		<path class="st0" d="M163.5,246.8c-1.8,0-3.6,0-5.3,0c-2.3,0-3.9-1.5-3.9-3.6c0-2.1,1.6-3.7,3.9-3.7c3.6,0,7.1,0,10.7,0
			c2.2,0,3.9,1.6,3.9,3.7c0,2.1-1.6,3.7-3.9,3.7C167.1,246.8,165.3,246.8,163.5,246.8z"/>
	</g>
	<rect x="134.3" y="276.4" class="st1" width="58.6" height="28.5"/>
	<text transform="matrix(1 0 0 1 141.2676 286.837)" class="st2 st3">BRAND</text>
</g>
<g>
	<g>
		<path class="st4" d="M97.2,425.2c0.1-0.5-0.3-0.7-0.6-1.1c-9.3-12.9-18.7-25.7-28.1-38.6c-0.2-0.3-0.4-0.6-0.6-0.9
			c0.4-0.2,0.8-0.1,1.2-0.1c6,0,11.9,0,17.9,0c0.9,0,1.2-0.2,1.2-1.1c0-6.7,0-13.3,0-20c0-0.9,0.2-1.1,1.1-1.1c5.5,0,11,0,16.4,0
			c0.8,0,1,0.2,1,1c0,6.7,0,13.4,0,20.1c0,1,0.3,1.1,1.2,1.1c6.3,0,12.6,0,19,0c0,0.5-0.4,0.8-0.6,1.1
			c-9.4,12.9-18.7,25.7-28.1,38.6c-0.2,0.3-0.6,0.5-0.5,1C97.5,425.2,97.4,425.2,97.2,425.2z"/>
		<path class="st4" d="M97.4,347.5c1.7,0,3.5,0,5.2,0c2.3,0,4,1.5,4,3.7c0,2.1-1.6,3.7-3.9,3.8c-3.6,0-7.1,0-10.7,0
			c-2.3,0-3.9-1.6-3.9-3.8c0-2.1,1.7-3.6,4-3.7C93.9,347.5,95.7,347.5,97.4,347.5z"/>
		<path class="st4" d="M97.4,325.3c-1.8,0-3.6,0-5.3,0c-2.3,0-3.8-1.6-3.8-3.7c0-2.1,1.6-3.7,3.9-3.7c3.6,0,7.2,0,10.8,0
			c2.2,0,3.8,1.6,3.8,3.7c0,2.1-1.6,3.6-3.9,3.7C101,325.3,99.2,325.3,97.4,325.3z"/>
		<path class="st4" d="M97.4,332.8c1.8,0,3.6,0,5.3,0c2.3,0,3.9,1.5,3.9,3.6c0,2.1-1.6,3.7-3.9,3.7c-3.6,0-7.1,0-10.7,0
			c-2.2,0-3.9-1.6-3.9-3.7c0-2.1,1.6-3.7,3.9-3.7C93.9,332.8,95.7,332.8,97.4,332.8z"/>
	</g>
	<rect x="68.2" y="440" class="st1" width="58.6" height="28.5"/>
	<text transform="matrix(1 0 0 1 80.3018 450.3956)" class="st2 st3">COST</text>
</g>
<g>
	<g>
		<path class="st4" d="M164.4,426c0.1-0.5-0.3-0.7-0.6-1.1c-9.3-12.9-18.7-25.7-28.1-38.6c-0.2-0.3-0.4-0.6-0.6-0.9
			c0.4-0.2,0.8-0.1,1.2-0.1c6,0,11.9,0,17.9,0c0.9,0,1.2-0.2,1.2-1.1c0-6.7,0-13.3,0-20c0-0.9,0.2-1.1,1.1-1.1c5.5,0,11,0,16.4,0
			c0.8,0,1,0.2,1,1c0,6.7,0,13.4,0,20.1c0,1,0.3,1.1,1.2,1.1c6.3,0,12.6,0,19,0c0,0.5-0.4,0.8-0.6,1.1
			c-9.4,12.9-18.7,25.7-28.1,38.6c-0.2,0.3-0.6,0.5-0.5,1C164.7,426,164.6,426,164.4,426z"/>
		<path class="st4" d="M164.6,348.4c1.7,0,3.5,0,5.2,0c2.3,0,4,1.5,4,3.7c0,2.1-1.6,3.7-3.9,3.8c-3.6,0-7.1,0-10.7,0
			c-2.3,0-3.9-1.6-3.9-3.8c0-2.1,1.7-3.6,4-3.7C161.1,348.3,162.9,348.4,164.6,348.4z"/>
		<path class="st4" d="M164.6,326.2c-1.8,0-3.6,0-5.3,0c-2.3,0-3.8-1.6-3.8-3.7c0-2.1,1.6-3.7,3.9-3.7c3.6,0,7.2,0,10.8,0
			c2.2,0,3.8,1.6,3.8,3.7c0,2.1-1.6,3.6-3.9,3.7C168.2,326.2,166.4,326.2,164.6,326.2z"/>
		<path class="st4" d="M164.6,333.6c1.8,0,3.6,0,5.3,0c2.3,0,3.9,1.5,3.9,3.6c0,2.1-1.6,3.7-3.9,3.7c-3.6,0-7.1,0-10.7,0
			c-2.2,0-3.9-1.6-3.9-3.7c0-2.1,1.6-3.7,3.9-3.7C161.1,333.6,162.9,333.6,164.6,333.6z"/>
	</g>
	<rect x="135.4" y="440" class="st1" width="58.6" height="28.5"/>
	<text transform="matrix(1 0 0 1 149.7578 450.3956)" class="st2 st3">RISK</text>
</g>
</svg>
